<svg width="30" height="31" viewBox="0 0 30 31" fill="none" xmlns="http://www.w3.org/2000/svg">
<g clip-path="url(#clip0_5_493)">
<path d="M15 0.240234C6.72903 0.240234 0 6.96927 0 15.2402C0 23.5106 6.72903 30.2402 15 30.2402C23.2704 30.2402 30 23.5106 30 15.2402C30 6.96927 23.2716 0.240234 15 0.240234ZM18.7304 15.7683H16.29V24.4664H12.6738C12.6738 24.4664 12.6738 19.7138 12.6738 15.7683H10.9548V12.6941H12.6738V10.7057C12.6738 9.28156 13.3505 7.05627 16.3232 7.05627L19.0029 7.06655V10.0507C19.0029 10.0507 17.3745 10.0507 17.0579 10.0507C16.7413 10.0507 16.2912 10.209 16.2912 10.8881V12.6947H19.0464L18.7304 15.7683Z" fill="white"/>
</g>
<defs>
<clipPath id="clip0_5_493">
<rect width="30" height="30" fill="white" transform="translate(0 0.240234)"/>
</clipPath>
</defs>
</svg>
