<svg width="30" height="30" viewBox="0 0 30 30" fill="none" xmlns="http://www.w3.org/2000/svg">
<g clip-path="url(#clip0_5_161)">
<path d="M29.3316 11.2904C28.8651 10.7918 28.206 10.5059 27.5233 10.5059C27.2572 10.5059 26.994 10.5492 26.744 10.6321L27.0446 8.94814C27.2485 7.80734 26.9389 6.6433 26.195 5.75464C25.4509 4.86575 24.3593 4.35596 23.2001 4.35596H6.473C5.28797 4.35596 4.18105 4.88449 3.43596 5.80603C2.69082 6.72762 2.40586 7.92088 2.65404 9.07983L2.97011 10.5554C2.80897 10.5227 2.64393 10.5058 2.47682 10.5058C1.79406 10.5058 1.13496 10.7917 0.6684 11.2902C0.201778 11.7889 -0.0398411 12.4658 0.00545517 13.1474L0.335597 18.1005C0.349198 20.1312 1.97022 21.7864 3.9875 21.856L3.47263 23.9156C3.36802 24.334 3.46027 24.769 3.72572 25.109C3.99117 25.4489 4.39073 25.6439 4.82205 25.6439C5.46146 25.6439 6.01637 25.2106 6.17148 24.5903L6.85423 21.8593H23.146L23.8287 24.5903C23.9838 25.2106 24.5387 25.6439 25.1781 25.6439C25.6094 25.6439 26.009 25.4489 26.2745 25.1089C26.5399 24.7689 26.6322 24.334 26.5275 23.9155L26.0126 21.8561C26.9735 21.8233 27.8726 21.4345 28.5569 20.7508C29.2657 20.0415 29.6581 19.1008 29.6645 18.0998L29.9947 13.1472C30.0399 12.4659 29.7983 11.789 29.3316 11.2904ZM4.17164 6.40097C4.73625 5.70266 5.575 5.30215 6.47294 5.30215H23.2C24.0784 5.30215 24.9056 5.68847 25.4694 6.362C26.033 7.03535 26.2677 7.91733 26.1132 8.7818L25.6531 11.3593C25.3719 11.6822 25.1798 12.0724 25.0944 12.497L24.2494 16.7225C24.1475 17.2321 23.6963 17.6019 23.1767 17.6019H6.82337C6.3037 17.6019 5.85257 17.232 5.75063 16.7224L4.90555 12.4966C4.7932 11.937 4.48907 11.4302 4.04735 11.0677L3.57913 8.88174C3.39102 8.00361 3.60698 7.0994 4.17164 6.40097ZM5.25355 24.361C5.204 24.5594 5.02648 24.698 4.82199 24.698C4.68404 24.698 4.55631 24.6357 4.47139 24.5269C4.38648 24.4182 4.35697 24.2791 4.39044 24.1453L4.96184 21.8596H5.87889L5.25355 24.361ZM25.5286 24.5269C25.4437 24.6355 25.3159 24.6979 25.178 24.6979C24.9735 24.6979 24.796 24.5594 24.7464 24.361L24.1211 21.8595H25.0381L25.6096 24.1452C25.6431 24.279 25.6136 24.4182 25.5286 24.5269ZM27.8879 20.082C27.3512 20.6181 26.6383 20.9134 25.8806 20.9134H25.4075H23.5153H6.48483H4.59256H4.11949C2.5544 20.9134 1.28108 19.6401 1.28108 18.075C1.28108 18.0698 1.28049 18.0648 1.28031 18.0595C1.28014 18.0542 1.28043 18.049 1.28008 18.0435L0.949521 13.0847C0.921137 12.6572 1.06661 12.2496 1.35926 11.9369C1.65179 11.6242 2.04869 11.4521 2.47676 11.4521C2.79076 11.4521 3.09311 11.5471 3.35129 11.7268C3.3517 11.7271 3.35217 11.7274 3.35265 11.7277C3.35318 11.728 3.35371 11.7285 3.35424 11.7288C3.38174 11.7476 3.41184 11.7705 3.44732 11.7992C3.71986 12.0223 3.90832 12.3362 3.97792 12.6825L4.82294 16.908C5.01299 17.8583 5.85429 18.548 6.82342 18.548H23.1767C24.1459 18.548 24.9872 17.8583 25.1772 16.908L26.0221 12.6831C26.0812 12.3894 26.2227 12.1224 26.4314 11.9108C26.436 11.9061 26.4406 11.9013 26.445 11.8964C26.4785 11.863 26.514 11.831 26.5531 11.7989C26.8259 11.5752 27.1705 11.452 27.5233 11.452C27.9514 11.452 28.3483 11.6241 28.6408 11.9367C28.9334 12.2495 29.079 12.6572 29.0506 13.0845L28.72 18.0435C28.7197 18.0488 28.72 18.0541 28.7198 18.0595C28.7196 18.0647 28.719 18.0697 28.719 18.075C28.719 18.8328 28.4237 19.5457 27.8879 20.082Z" fill="#B58569"/>
</g>
<defs>
<clipPath id="clip0_5_161">
<rect width="30" height="30" fill="white"/>
</clipPath>
</defs>
</svg>
