<svg width="154" height="39" viewBox="0 0 154 39" fill="none" xmlns="http://www.w3.org/2000/svg">
<g clip-path="url(#clip0_5_402)">
<path d="M27.4006 38.2402C26.9031 38.0113 26.351 38.059 25.8266 37.9684C19.3658 36.8527 14.4801 33.6081 11.3877 28.1488C5.10411 17.0518 11.7565 3.44782 24.7574 0.671875C25.4921 0.512244 26.2376 0.400579 26.9886 0.33767C27.0689 0.33085 27.1637 0.348388 27.1946 0.240234H31.006C31.7147 0.457516 32.4615 0.481875 33.1867 0.616337C41.0423 2.07788 47.4639 8.24167 48.8298 15.7394C50.0041 22.1838 48.1994 27.8351 43.4053 32.5393C39.9679 35.9086 35.6971 37.7531 30.7505 38.1496C30.6578 38.1574 30.5383 38.1097 30.4909 38.2402H29.8729C29.3359 38.0839 28.7617 38.0839 28.2247 38.2402H27.4006ZM29.0972 35.4146C38.2321 35.4633 46.0661 28.5132 46.2257 19.5033C46.3874 10.3219 38.5896 3.08049 29.2291 3.01911C19.8088 2.95675 12.0676 10.0813 11.9852 18.9625C11.8997 28.1507 19.5255 35.4146 29.0972 35.4146Z" fill="#1E1E1E"/>
<path d="M-0.000923025 8.22998C1.11262 8.22998 2.22718 8.25531 3.34072 8.23583C3.69096 8.22998 3.76718 8.33326 3.76718 8.64603C3.75894 15.7004 3.75894 22.7544 3.76718 29.8081C3.76718 30.1365 3.66417 30.2096 3.33145 30.2125C2.21997 30.2213 1.10747 30.1423 -0.00195312 30.2505L-0.000923025 8.22998Z" fill="#1E1E1E"/>
<path d="M154 11.0558C153.747 11.2711 153.735 11.6073 153.537 11.8596C153.213 12.2827 152.748 12.5909 152.217 12.7352C151.687 12.8795 151.12 12.8515 150.608 12.6557C150.104 12.4617 149.684 12.1137 149.414 11.6671C149.144 11.2206 149.041 10.7014 149.119 10.1925C149.262 9.1597 150.152 8.3276 151.219 8.23016C152.427 8.11421 153.444 8.70857 153.853 9.75211C153.896 9.86319 153.83 10.0249 154.001 10.0853L154 11.0558ZM149.658 10.5024C149.654 10.7378 149.698 10.9717 149.789 11.1908C149.881 11.4098 150.017 11.6097 150.19 11.7788C150.363 11.9479 150.57 12.083 150.798 12.1763C151.027 12.2696 151.273 12.3193 151.522 12.3225C152.026 12.3261 152.512 12.14 152.871 11.805C153.231 11.4701 153.435 11.0138 153.439 10.5365C153.442 10.0592 153.246 9.59999 152.892 9.25994C152.538 8.91988 152.055 8.7268 151.55 8.72319C151.303 8.72203 151.057 8.76719 150.828 8.85606C150.598 8.94493 150.39 9.07577 150.214 9.24107C150.038 9.40637 149.898 9.60288 149.803 9.81933C149.708 10.0358 149.658 10.2679 149.658 10.5024Z" fill="#1E1E1E"/>
<path d="M28.2246 38.2403C28.7616 38.084 29.3358 38.084 29.8728 38.2403H28.2246Z" fill="#1E1E1E"/>
<path d="M73.7851 30.2038C72.3306 30.2038 70.9781 30.195 69.6246 30.2096C69.3155 30.2096 69.2218 30.005 69.0889 29.8277C67.3501 27.497 65.6147 25.1644 63.8828 22.8298C63.6768 22.5492 63.4707 22.4245 63.0989 22.4303C61.5881 22.455 60.0773 22.455 58.5664 22.4303C58.1915 22.4255 58.0802 22.4976 58.0844 22.8737C58.106 25.1624 58.0844 27.4532 58.106 29.741C58.106 30.1375 57.9834 30.2223 57.5909 30.2106C56.6824 30.1843 55.7707 30.1814 54.8632 30.2106C54.4419 30.2252 54.3173 30.118 54.3204 29.7078C54.342 27.3694 54.3307 25.0309 54.3307 22.6924C54.3307 18.0496 54.3379 13.4068 54.3204 8.76398C54.3204 8.33916 54.4234 8.22614 54.8797 8.22906C58.209 8.25049 61.5393 8.22906 64.8717 8.24465C66.1595 8.23604 67.4388 8.44185 68.6511 8.85265C72.0371 10.0355 73.4576 12.7043 73.1939 15.8028C72.9302 18.87 71.0935 20.7311 68.0887 21.6664C67.5015 21.8486 67.4995 21.8418 67.8394 22.293C69.7101 24.7737 71.58 27.2547 73.4493 29.7361C73.5482 29.8657 73.6389 30.0001 73.7851 30.2038ZM58.0967 15.3701C58.0967 16.5705 58.0967 17.7723 58.0967 18.9753C58.0967 19.1458 58.0411 19.3348 58.3563 19.328C60.7255 19.2783 63.0948 19.4595 65.4506 19.2305C68.1289 18.9665 69.6565 17.1308 69.33 14.6803C69.1002 12.9557 67.6365 11.7319 65.497 11.5526C63.136 11.3577 60.7667 11.5185 58.4016 11.463C58.0792 11.4552 58.0926 11.614 58.0926 11.8235C58.0967 13.0044 58.0967 14.1853 58.0967 15.3701Z" fill="#1E1E1E"/>
<path d="M129.222 19.2402C129.222 15.7325 129.228 12.2249 129.213 8.71716C129.213 8.33424 129.316 8.22998 129.722 8.22998C135.095 8.24362 140.468 8.24362 145.841 8.22998C146.213 8.22998 146.356 8.29526 146.336 8.67721C146.302 9.43819 146.298 10.204 146.336 10.965C146.357 11.3733 146.169 11.3986 145.821 11.3976C141.769 11.3885 137.718 11.3866 133.666 11.3918C132.979 11.3918 132.979 11.3918 132.979 12.0612C132.979 13.7176 133.001 15.374 132.965 17.0304C132.955 17.4991 133.119 17.5712 133.563 17.5692C136.583 17.5517 139.605 17.5692 142.628 17.5517C142.977 17.5517 143.1 17.615 143.085 17.9677C143.054 18.7472 143.058 19.5267 143.085 20.3062C143.096 20.6268 142.998 20.7047 142.663 20.7028C139.59 20.6901 136.517 20.7028 133.445 20.6862C133.058 20.6862 132.968 20.7739 132.972 21.1363C132.993 22.9551 132.993 24.7739 132.972 26.5928C132.972 26.963 133.075 27.039 133.451 27.0371C137.604 27.0234 141.758 27.0371 145.915 27.0147C146.43 27.0147 146.533 27.153 146.508 27.5993C146.466 28.3447 146.486 29.093 146.502 29.8403C146.509 30.1102 146.435 30.2028 146.133 30.2018C140.623 30.194 135.113 30.194 129.602 30.2018C129.19 30.2018 129.22 30.0069 129.22 29.7506C129.224 26.2514 129.224 22.7479 129.222 19.2402Z" fill="#1E1E1E"/>
<path d="M77.4414 30.2038C78.1295 28.7052 78.7805 27.27 79.446 25.8377C82.1078 20.0753 84.7699 14.312 87.4323 8.54769C87.592 8.19984 87.7558 8.05369 88.174 8.07123C89.0475 8.10825 89.9252 8.10338 90.7987 8.07123C91.1572 8.05856 91.3066 8.18718 91.4384 8.47461C93.8859 13.7979 96.3386 19.1182 98.7964 24.4356C99.6205 26.2138 100.43 27.9949 101.269 29.7644C101.453 30.1541 101.361 30.2184 100.948 30.2096C99.9367 30.1872 98.9231 30.1902 97.9116 30.2096C97.5871 30.2155 97.4377 30.119 97.3131 29.8296C96.6507 28.2872 95.9533 26.7585 95.2827 25.219C95.1581 24.9335 95.0221 24.798 94.6564 24.8C91.1541 24.8169 87.6535 24.8169 84.1546 24.8C83.8043 24.8 83.6529 24.8974 83.52 25.2034C82.8505 26.7438 82.1438 28.2697 81.467 29.8063C81.3383 30.0986 81.1848 30.2204 80.8273 30.2106C79.7303 30.1853 78.6332 30.2038 77.4414 30.2038ZM89.3823 12.1616C87.9247 15.377 86.5053 18.5134 85.0652 21.6918C87.8392 21.6918 90.534 21.6801 93.2277 21.7025C93.7427 21.7025 93.6851 21.5525 93.5305 21.2153C92.5691 19.1419 91.6159 17.0652 90.671 14.9853C90.2517 14.0762 89.8345 13.1545 89.3823 12.1616Z" fill="#1E1E1E"/>
<path d="M112.766 25.6594C113.553 23.7603 114.302 21.9568 115.047 20.1513C116.632 16.3084 118.215 12.4643 119.793 8.61879C119.91 8.3333 120.055 8.22904 120.384 8.23781C121.58 8.25827 122.775 8.24561 124.031 8.24561C123.453 9.57755 122.898 10.8618 122.338 12.143C119.769 18.0327 117.202 23.9237 114.637 29.816C114.467 30.2057 114.277 30.3908 113.791 30.3606C112.987 30.309 112.178 30.3343 111.371 30.3528C111.092 30.3597 110.953 30.2846 110.843 30.0303C107.739 22.8961 104.63 15.7641 101.515 8.63438C101.465 8.51843 101.429 8.39663 101.373 8.24463C102.698 8.24463 103.982 8.2534 105.267 8.23878C105.588 8.23878 105.61 8.4473 105.687 8.63438C106.855 11.4503 108.022 14.2665 109.189 17.083C110.3 19.7645 111.41 22.4462 112.52 25.1283C112.59 25.2813 112.658 25.4245 112.766 25.6594Z" fill="#1E1E1E"/>
<path d="M29.0689 30.5591C23.0613 30.5591 18.4228 26.9803 17.3669 21.33C16.239 15.2948 19.8227 9.76048 25.7437 8.31453C30.1587 7.23689 34.239 7.93745 37.7547 10.8605C38.0637 11.1148 38.0637 11.259 37.7897 11.5358C37.1923 12.1389 36.6216 12.7683 36.0736 13.4114C35.7985 13.7339 35.6296 13.7963 35.2598 13.4845C33.9207 12.3571 32.4074 11.5231 30.6079 11.2435C26.3412 10.5916 22.7193 12.7654 21.5059 16.694C20.4851 20.0068 21.6089 23.7016 24.2387 25.702C27.0128 27.8095 30.9035 27.8933 34.0103 25.9085C34.5253 25.5821 35.0311 25.2421 35.4524 24.8192C35.7769 24.4957 35.9675 24.56 36.2538 24.8591C36.8049 25.4369 37.3869 25.9904 37.9844 26.5263C38.2347 26.7513 38.2048 26.8692 37.9762 27.0894C35.5183 29.4523 32.6938 30.5591 29.0689 30.5591Z" fill="#1E1E1E"/>
<path d="M150.544 10.514C150.542 10.4816 150.542 10.449 150.544 10.4166C150.594 10.058 150.348 9.52309 150.656 9.37401C151.042 9.18791 151.59 9.26196 152.06 9.36524C152.504 9.46268 152.742 9.83391 152.545 10.2129C152.405 10.4809 152.366 10.6709 152.534 10.9281C152.605 11.0372 152.574 11.2117 152.575 11.3559C152.575 11.4669 152.767 11.6482 152.456 11.6599C152.24 11.6657 152.033 11.6784 152.044 11.3841C152.052 11.0236 151.973 10.7722 151.485 10.7508C151.058 10.7323 151.134 10.9534 151.112 11.1941C151.096 11.3714 151.292 11.6813 150.843 11.6647C150.623 11.6569 150.534 11.5994 150.545 11.3861C150.554 11.0957 150.544 10.8044 150.544 10.514ZM151.459 10.3688C151.749 10.3795 152.038 10.3981 152.027 10.0434C152.017 9.75109 151.756 9.77058 151.536 9.77642C151.335 9.78227 151.095 9.69068 151.104 10.0522C151.114 10.3386 151.208 10.4273 151.459 10.3737V10.3688Z" fill="#1E1E1E"/>
</g>
<defs>
<clipPath id="clip0_5_402">
<rect width="154" height="38" fill="white" transform="translate(0 0.240234)"/>
</clipPath>
</defs>
</svg>
