<svg width="30" height="31" viewBox="0 0 30 31" fill="none" xmlns="http://www.w3.org/2000/svg">
<g clip-path="url(#clip0_5_488)">
<path d="M15 18.3164C16.6989 18.3164 18.0762 16.9392 18.0762 15.2402C18.0762 13.5413 16.6989 12.1641 15 12.1641C13.3011 12.1641 11.9238 13.5413 11.9238 15.2402C11.9238 16.9392 13.3011 18.3164 15 18.3164Z" fill="white"/>
<path d="M15 0.591797C6.9099 0.591797 0.351562 7.15014 0.351562 15.2402C0.351562 23.3303 6.9099 29.8887 15 29.8887C23.0901 29.8887 29.6484 23.3303 29.6484 15.2402C29.6484 7.15014 23.0901 0.591797 15 0.591797ZM24.0503 18.9633C23.98 20.3559 23.5886 21.7293 22.5737 22.7334C21.549 23.7471 20.1691 24.1247 18.7631 24.1944H11.237C9.83074 24.1247 8.45109 23.7473 7.42635 22.7334C6.41139 21.7293 6.0201 20.3559 5.94979 18.9633V11.5172C6.0201 10.1245 6.41145 8.75121 7.42635 7.74703C8.45109 6.73336 9.83092 6.35566 11.237 6.28611H18.763C20.1693 6.35566 21.5489 6.73318 22.5737 7.74703C23.5886 8.75121 23.9799 10.1245 24.0502 11.5172L24.0503 18.9633Z" fill="white"/>
<path d="M18.6677 7.98253C16.8345 7.93226 13.1654 7.93226 11.3322 7.98253C10.3783 8.00872 9.29679 8.2462 8.6171 8.97218C7.91081 9.72681 7.64392 10.6385 7.61685 11.6585C7.56927 13.4486 7.61685 18.8217 7.61685 18.8217C7.64785 19.8415 7.91081 20.7533 8.6171 21.508C9.29679 22.2342 10.3783 22.4714 11.3322 22.4976C13.1654 22.5479 16.8345 22.5479 18.6677 22.4976C19.6217 22.4714 20.7031 22.2339 21.3828 21.508C22.0891 20.7533 22.356 19.8416 22.3831 18.8217V11.6585C22.356 10.6385 22.0891 9.72681 21.3828 8.97218C20.7029 8.24597 19.6214 8.00872 18.6677 7.98253ZM14.9997 20.0081C14.0567 20.0081 13.1348 19.7285 12.3507 19.2046C11.5666 18.6806 10.9555 17.936 10.5946 17.0647C10.2337 16.1935 10.1393 15.2348 10.3233 14.3099C10.5072 13.385 10.9614 12.5354 11.6282 11.8685C12.295 11.2017 13.1446 10.7476 14.0695 10.5636C14.9944 10.3796 15.9531 10.4741 16.8244 10.8349C17.6956 11.1958 18.4403 11.807 18.9642 12.5911C19.4881 13.3752 19.7678 14.297 19.7678 15.2401C19.7678 16.5046 19.2654 17.7174 18.3713 18.6116C17.4771 19.5058 16.2643 20.0081 14.9997 20.0081ZM19.7881 11.4562C19.5995 11.4562 19.4151 11.4002 19.2583 11.2954C19.1015 11.1906 18.9793 11.0416 18.9072 10.8674C18.8351 10.6931 18.8162 10.5014 18.853 10.3164C18.8899 10.1314 18.9807 9.96154 19.1141 9.8282C19.2474 9.69486 19.4174 9.60406 19.6023 9.56728C19.7873 9.5305 19.979 9.5494 20.1533 9.62159C20.3275 9.69377 20.4764 9.816 20.5812 9.97281C20.686 10.1296 20.7419 10.314 20.7419 10.5026C20.7419 10.6278 20.7172 10.7519 20.6693 10.8676C20.6214 10.9833 20.5511 11.0884 20.4625 11.177C20.3739 11.2655 20.2688 11.3358 20.1531 11.3837C20.0373 11.4316 19.9133 11.4562 19.7881 11.4562Z" fill="white"/>
</g>
<defs>
<clipPath id="clip0_5_488">
<rect width="30" height="30" fill="white" transform="translate(0 0.240234)"/>
</clipPath>
</defs>
</svg>
