<svg width="128" height="39" viewBox="0 0 128 39" fill="none" xmlns="http://www.w3.org/2000/svg">
<path d="M121.754 33.3119C112.962 40.8805 100.436 39.132 93.9329 31.3384C87.6965 23.8512 88.0905 13.0216 94.7979 6.128C101.629 -0.88484 113.16 -2.03422 121.575 5.04368C121.851 4.8729 121.735 4.58827 121.738 4.36056C121.751 3.18136 121.762 2.00216 121.738 0.836519C121.738 0.391948 121.886 0.261829 122.322 0.267251C124.016 0.283516 125.707 0.291648 127.398 0.267251C127.902 0.267251 128.037 0.446164 127.999 0.896157C127.969 1.22687 127.999 1.5603 127.999 1.89373V37.1558C127.999 38.1534 127.999 38.1561 127.007 38.1561C125.473 38.1561 123.936 38.1317 122.399 38.1561C121.867 38.1561 121.738 37.9853 121.746 37.4974C121.754 36.1555 121.754 34.8029 121.754 33.3119ZM108.7 32.0893C110.409 32.0901 112.102 31.7595 113.681 31.1165C115.26 30.4736 116.695 29.5308 117.904 28.342C119.113 27.1533 120.072 25.7418 120.727 24.1883C121.382 22.6347 121.719 20.9694 121.72 19.2876C121.721 17.6057 121.385 15.9402 120.731 14.3861C120.078 12.832 119.12 11.4197 117.912 10.23C116.704 9.04019 115.27 8.09623 113.691 7.45195C112.112 6.80767 110.42 6.4757 108.711 6.47498C101.602 6.47498 95.7069 12.1487 95.6931 19.0287C95.6793 26.337 101.387 32.0677 108.692 32.0758L108.7 32.0893Z" fill="#1E1E1E"/>
<path d="M0.000237859 19.159C0.00826843 14.1386 2.04199 9.32679 5.65423 5.78162C9.26647 2.23646 14.1615 0.248163 19.263 0.253919C29.9756 0.272894 38.5865 8.77396 38.5011 19.2295C38.4157 29.8775 29.8131 38.1916 18.9297 38.1455C8.53945 38.113 -0.0520992 29.517 0.000237859 19.159ZM6.24213 19.2539C6.19805 26.2559 12.0268 32.0326 19.1887 32.0733C22.6296 32.0806 25.9338 30.7487 28.3808 28.368C30.8277 25.9874 32.2189 22.7511 32.2509 19.3651C32.2922 12.382 26.5131 6.52129 19.5357 6.47521C12.1204 6.43183 6.29171 12.0432 6.24213 19.2539Z" fill="#1E1E1E"/>
<path d="M60.8771 8.16392C60.8771 5.75402 60.8936 3.34411 60.8633 0.934213C60.8633 0.392053 61.0093 0.229405 61.5575 0.240248C63.1744 0.272778 64.7886 0.278199 66.4028 0.240248C67.0088 0.240248 67.1961 0.392053 67.1933 1.01012C67.1686 5.72691 67.1933 10.4437 67.163 15.1605C67.163 15.906 67.3035 16.1635 68.1354 16.1554C72.9284 16.1093 77.7214 16.1554 82.5143 16.1201C83.1617 16.1201 83.3628 16.2828 83.3407 16.9334C83.2939 18.4704 83.2966 20.0101 83.3407 21.5417C83.36 22.1815 83.1699 22.355 82.5143 22.355C77.6938 22.3279 72.8733 22.355 68.0555 22.3224C67.309 22.3224 67.1603 22.5556 67.163 23.2333C67.1906 27.9501 67.163 32.6668 67.1933 37.3836C67.1933 38.0695 67.0033 38.2538 66.3229 38.2348C64.7363 38.186 63.1441 38.1969 61.5575 38.2348C61.0066 38.2348 60.8606 38.0722 60.8633 37.5409C60.8826 32.797 60.8633 28.0531 60.8633 23.3119C60.8633 22.3441 60.8633 22.3441 59.8414 22.3441C55.0759 22.3441 50.3077 22.3441 45.5423 22.3441C44.8812 22.3441 44.7159 22.1652 44.7159 21.5309C44.7637 19.9948 44.7637 18.4586 44.7159 16.9225C44.6994 16.2936 44.8647 16.1093 45.5423 16.1093C50.283 16.1391 55.0236 16.1283 59.7642 16.1093C61.0203 16.1093 60.8661 16.2475 60.8661 15.0656C60.8771 12.7777 60.8771 10.4708 60.8771 8.16392Z" fill="#1E1E1E"/>
</svg>
