<svg width="24" height="25" viewBox="0 0 24 25" fill="none" xmlns="http://www.w3.org/2000/svg">
<g clip-path="url(#clip0_5_641)">
<path d="M18.5 1.24023H5.5C4.0418 1.24182 2.64377 1.8218 1.61267 2.8529C0.581561 3.88401 0.00158817 5.28203 0 6.74023L0 17.7402C0.00158817 19.1984 0.581561 20.5965 1.61267 21.6276C2.64377 22.6587 4.0418 23.2386 5.5 23.2402H18.5C19.9582 23.2386 21.3562 22.6587 22.3873 21.6276C23.4184 20.5965 23.9984 19.1984 24 17.7402V6.74023C23.9984 5.28203 23.4184 3.88401 22.3873 2.8529C21.3562 1.8218 19.9582 1.24182 18.5 1.24023ZM18.5 4.24023C19.1065 4.24225 19.6911 4.46678 20.143 4.87123L13.643 11.3712C13.2015 11.7929 12.6145 12.0282 12.004 12.0282C11.3935 12.0282 10.8065 11.7929 10.365 11.3712L3.865 4.87123C4.31485 4.46861 4.8963 4.24421 5.5 4.24023H18.5ZM18.5 20.2402H5.5C4.83696 20.2402 4.20107 19.9768 3.73223 19.508C3.26339 19.0392 3 18.4033 3 17.7402V8.25723L8.239 13.4962C8.73276 13.9902 9.319 14.3821 9.96424 14.6494C10.6095 14.9168 11.3011 15.0544 11.9995 15.0544C12.6979 15.0544 13.3895 14.9168 14.0348 14.6494C14.68 14.3821 15.2662 13.9902 15.76 13.4962L21 8.25723V17.7402C21 18.4033 20.7366 19.0392 20.2678 19.508C19.7989 19.9768 19.163 20.2402 18.5 20.2402Z" fill="#8C8C8C"/>
</g>
<defs>
<clipPath id="clip0_5_641">
<rect width="24" height="24" fill="white" transform="translate(0 0.240479)"/>
</clipPath>
</defs>
</svg>
