<svg width="44" height="44" viewBox="0 0 44 44" fill="none" xmlns="http://www.w3.org/2000/svg">
<g clip-path="url(#clip0_5_110)">
<path d="M42.0004 22.1845V16.0004C42.0004 13.9035 40.3738 12.1981 38.3188 12.0327L32.5758 2.00162C32.0435 1.07388 31.1842 0.4108 30.1558 0.13546C29.1324 -0.138004 28.0621 0.00561882 27.1461 0.538766L7.45867 12.0005H4.00094C1.79495 12.0005 0.000976562 13.7943 0.000976562 16.0004V40C0.000976562 42.206 1.79485 44 4.00094 44H38.0004C40.2064 44 42.0004 42.2061 42.0004 40V33.8159C43.1618 33.4017 44.0003 32.3022 44.0003 31.0002V25.0003C44.0003 23.6983 43.1618 22.5987 42.0004 22.1845ZM35.9949 12.0005H27.279L33.816 8.19464L35.9949 12.0005ZM32.8223 6.45907L23.3041 12.0005H19.3561L31.8351 4.73495L32.8223 6.45907ZM28.1529 2.26721C28.605 2.00255 29.1333 1.93224 29.6382 2.06705C30.149 2.20374 30.5748 2.53383 30.8394 2.99573L30.8415 2.99938L15.3814 12.0005H11.4336L28.1529 2.26721ZM40.0004 40C40.0004 41.1025 39.1029 42 38.0004 42H4.00094C2.89846 42 2.00101 41.1025 2.00101 40V16.0004C2.00101 14.8979 2.89846 14.0005 4.00094 14.0005H38.0004C39.1029 14.0005 40.0004 14.8979 40.0004 16.0004V22.0003H34.0005C30.6919 22.0003 28.0006 24.6917 28.0006 28.0002C28.0006 31.3088 30.6919 34.0001 34.0005 34.0001H40.0004V40ZM42.0004 31.0002C42.0004 31.5519 41.5522 32.0002 41.0004 32.0002H34.0005C31.7945 32.0002 30.0005 30.2063 30.0005 28.0002C30.0005 25.7942 31.7944 24.0003 34.0005 24.0003H41.0004C41.5521 24.0003 42.0004 24.4485 42.0004 25.0003V31.0002Z" fill="#B58569"/>
<path d="M34.0001 26.0002C32.8976 26.0002 32.0002 26.8977 32.0002 28.0002C32.0002 29.1027 32.8976 30.0001 34.0001 30.0001C35.1026 30.0001 36.0001 29.1027 36.0001 28.0002C36.0001 26.8977 35.1027 26.0002 34.0001 26.0002Z" fill="#B58569"/>
</g>
<defs>
<clipPath id="clip0_5_110">
<rect width="44" height="44" fill="white"/>
</clipPath>
</defs>
</svg>
