<svg width="252" height="81" viewBox="0 0 252 81" fill="none" xmlns="http://www.w3.org/2000/svg">
<g clip-path="url(#clip0_5_415)">
<path d="M27 40.0921C27 35.2305 27 30.3689 27 25.5073C27 24.263 27 24.2402 28.1397 24.2402H57.6547C58.7853 24.2402 58.7853 24.263 58.7853 25.2794C58.7853 35.2214 58.7853 45.1664 58.7853 55.1145C58.7853 56.1445 58.7853 56.1445 57.6502 56.1445H28.1352C27 56.1445 27 56.1445 27 54.8957C27 49.9551 27 45.0206 27 40.0921ZM57.8772 35.1469C57.8772 32.2664 57.8772 29.3905 57.8772 26.5191C57.8772 25.8719 57.7728 25.6076 57.0372 25.6076C53.4045 25.644 49.7719 25.6076 46.1666 25.6076C43.6101 25.6076 41.0537 25.6531 38.4972 25.6759C38.4427 28.3058 38.3792 30.9356 38.3428 33.57C38.3519 34.7231 38.3519 34.7231 39.6006 34.7231C42.2433 34.7231 44.8861 34.755 47.5243 34.7231C48.278 34.7231 48.3643 35.0102 48.3552 35.6346C48.3234 38.2098 48.3552 40.7849 48.3552 43.3828C48.3552 45.0509 48.5141 45.2059 50.0807 45.2059C52.1195 45.2059 54.1674 45.2059 56.1926 45.2059C57.7001 45.2059 57.8727 45.0282 57.8817 43.556C57.8772 40.753 57.8772 37.95 57.8772 35.1469ZM27.9082 45.4748C27.9082 48.5103 27.9082 51.5412 27.9082 54.5903C27.9082 55.0461 28.0126 55.2694 28.5212 55.2694C31.3152 55.2512 34.1093 55.2512 36.9034 55.2694C37.4438 55.233 37.4438 54.9322 37.4438 54.5265C37.4438 48.688 37.4438 42.8496 37.4438 37.002C37.4438 36.022 37.0941 35.6346 36.1496 35.6346C33.6568 35.6073 31.1548 35.6346 28.671 35.6118C28.0989 35.6346 27.9082 35.7668 27.9082 36.3821C27.9082 39.413 27.9082 42.4439 27.9082 45.4748ZM32.685 34.7231C34.0473 34.7231 35.4095 34.7231 36.7717 34.7231C37.2258 34.7231 37.4665 34.6593 37.4619 34.126C37.4498 31.4855 37.4438 28.839 37.4438 26.1864C37.4438 25.6486 37.1759 25.6076 36.749 25.6076C34.0246 25.6076 31.3001 25.6395 28.5756 25.6076C27.9082 25.6076 27.9082 25.9357 27.9082 26.428C27.9082 28.798 27.9082 31.127 27.9082 33.4788C27.9082 34.7231 27.9082 34.7231 29.2704 34.7231C30.4192 34.7231 31.5408 34.7231 32.685 34.7231ZM38.4336 50.5613V55.0826C39.9957 55.1327 41.5622 55.2239 43.1243 55.2284C44.541 55.2284 45.9531 55.1418 47.3699 55.0917C47.3971 53.6651 47.4425 52.234 47.4425 50.8074C47.4425 49.2988 47.4017 47.7947 47.3789 46.2861C45.8169 46.2314 44.2549 46.1403 42.6883 46.1357C41.2762 46.1357 39.8594 46.2268 38.4473 46.2724L38.4336 50.5613ZM50.839 46.0719C50.0353 46.1357 48.9183 45.9078 48.5141 46.3453C48.11 46.7829 48.3688 47.8995 48.3416 48.7154C48.3416 48.9387 48.2508 49.235 48.3416 49.3763C48.5913 49.6999 48.9092 50.1465 49.2497 50.1875C50.1423 50.2992 51.0453 50.2992 51.9379 50.1875C52.1357 50.123 52.3184 50.0186 52.4745 49.8807C52.6307 49.7427 52.7571 49.5742 52.846 49.3854C53.0004 49.0846 52.8778 48.647 52.8778 48.2733C52.9051 46.1175 52.9051 46.1175 50.839 46.0719ZM50.2578 55.233C50.7845 55.233 51.3112 55.2694 51.8334 55.233C52.6871 55.1555 52.8824 54.7453 52.8824 53.1865C52.8824 51.6278 52.6826 51.1994 51.8244 51.1538C50.8526 51.0991 49.8764 51.1538 48.9001 51.1538C48.3416 51.131 48.3416 51.4227 48.3416 51.842C48.3416 52.7536 48.3915 53.6651 48.3416 54.5493C48.2962 55.2239 48.6413 55.274 49.1498 55.2466C49.5086 55.233 49.8855 55.233 50.2578 55.233ZM53.7905 48.0591H53.7633C53.795 48.7291 53.5816 49.75 53.9176 49.987C54.4308 50.3516 55.3253 50.183 56.0563 50.224C56.356 50.224 56.6603 50.224 56.9645 50.224C57.5684 50.2832 57.9589 50.2012 57.8727 49.4173C57.7909 48.3736 57.8136 47.3207 57.7909 46.2724C56.683 46.2223 55.5705 46.1995 54.4671 46.1038C53.786 46.0445 53.7406 46.4046 53.7678 46.9151C53.7905 47.3025 53.7905 47.6808 53.7905 48.0591ZM55.9428 51.131C55.5659 51.131 55.1845 51.1583 54.8122 51.131C54.1129 51.0672 53.6407 51.131 53.7723 52.0425C53.9131 53.068 53.8949 54.1118 53.9494 55.1509C54.9938 55.1509 56.0382 55.1828 57.0826 55.2239C57.5957 55.2239 57.9362 55.1965 57.8908 54.522C57.8318 53.6104 57.859 52.6989 57.8908 51.7873C57.8908 51.3315 57.8272 51.0672 57.3005 51.0991C56.8464 51.1629 56.3924 51.131 55.9428 51.131Z" fill="#1E1E1E"/>
<path d="M136.887 32.8999C136.887 35.3291 136.887 37.7584 136.887 40.1923C136.887 40.8076 136.827 41.1038 136.074 41.1539C135.63 41.2066 135.18 41.1307 134.778 40.9353C134.376 40.7399 134.038 40.433 133.803 40.051C132.382 38.0319 130.879 36.0812 129.313 34.1806C128.259 32.8999 127.278 31.5325 126.257 30.2199C126.107 30.0484 125.948 29.8856 125.78 29.7322C125.665 29.9794 125.587 30.2419 125.548 30.5116C125.548 33.702 125.548 36.8924 125.548 40.0829C125.535 41.1038 125.535 41.1038 124.395 41.1038H123.941C122.833 41.1038 122.815 41.1038 122.815 40.0555C122.815 35.2744 122.815 30.4842 122.815 25.7123C122.815 24.983 122.851 24.5956 123.768 24.664C124.808 24.7415 125.893 24.5364 126.148 25.9721C128.418 28.0869 129.739 30.9537 131.91 33.146C132.518 33.7613 132.981 34.5133 133.531 35.197C133.668 35.3418 133.82 35.4717 133.985 35.5844C134.068 35.3888 134.125 35.1836 134.158 34.9736C134.158 32.0886 134.158 29.2035 134.158 26.3139C134.162 24.6959 134.162 24.6959 135.851 24.6959C136.873 24.6959 136.882 24.6959 136.887 25.8399C136.887 28.2008 136.887 30.5526 136.887 32.8999Z" fill="#1E1E1E"/>
<path d="M156.894 32.9C156.603 30.5299 157.729 28.6658 159.019 26.9339C159.927 25.6987 161.48 25.211 162.86 24.7552C165.862 23.7708 168.564 24.7552 171.007 26.5556C171.433 26.8655 171.665 27.4352 172.033 27.8454C172.417 28.2725 172.689 28.7897 172.823 29.3495C173.136 30.4388 173.731 31.4415 173.672 32.631C173.495 37.1068 171.547 39.8688 167.056 41.0264C165.702 41.3926 164.274 41.3879 162.922 41.0128C161.57 40.6376 160.343 39.9058 159.369 38.8934C157.639 37.1842 156.653 35.3019 156.894 32.9ZM164.904 26.9749C163.596 26.7105 162.524 27.3851 161.562 28.3969C160.44 29.5819 159.523 30.8672 159.6 32.59C159.791 37.0019 162.179 38.4969 165.362 38.825C166.902 38.98 168.023 37.9135 169.19 37.1432C169.867 36.6875 171.034 33.5426 170.929 32.6538C170.611 30.0103 169.086 26.8381 164.904 26.9749Z" fill="#1E1E1E"/>
<path d="M177.754 32.5856C177.754 30.2383 177.786 27.8911 177.754 25.5438C177.754 24.8146 178.004 24.6824 178.662 24.6915C181.001 24.728 183.344 24.6277 185.678 24.7325C186.467 24.7466 187.246 24.9179 187.97 25.2363C188.693 25.5547 189.346 26.014 189.891 26.5876C191.304 28.0688 191.172 29.778 190.704 31.5145C190.35 32.818 189.678 33.962 188.111 34.3129C187.362 34.4816 187.285 35.0422 187.775 35.735C188.729 37.1023 189.732 38.4058 190.713 39.7412C190.909 40.0056 191.095 40.2745 191.285 40.5434L190.427 40.6573C188.67 40.9035 187.562 40.2016 186.745 38.5836C186.291 37.672 185.519 36.8516 185.019 35.8899C184.908 35.6466 184.722 35.4458 184.488 35.3177C184.253 35.1895 183.984 35.1409 183.72 35.1789C182.685 35.2792 181.641 35.2701 180.596 35.3065C180.56 36.2728 180.51 37.2436 180.483 38.2098C180.483 38.7431 180.483 39.2718 180.483 39.8005C180.483 41.2772 180.565 41.104 179.629 41.1222C178.067 41.1496 177.781 40.949 177.768 39.641C177.754 37.2846 177.754 34.9374 177.754 32.5856ZM182.985 32.9365C184.229 32.8317 185.378 33.0231 186.518 32.4807C187.657 31.9384 188.161 31.4051 188.198 30.0833C188.252 29.5601 188.14 29.0329 187.876 28.5782C187.612 28.1234 187.211 27.7647 186.731 27.5538C184.987 26.7927 183.139 26.975 181.323 27.016C181.194 27.0316 181.07 27.0729 180.958 27.1374C180.846 27.2019 180.747 27.2882 180.669 27.3914C180.59 27.4946 180.532 27.6125 180.5 27.7382C180.467 27.8639 180.46 27.9949 180.478 28.1235C180.506 28.8801 180.478 29.6367 180.478 30.4024C180.478 31.1681 180.274 32.3394 180.701 32.7496C181.128 33.1598 182.258 32.9 182.985 32.9365Z" fill="#1E1E1E"/>
<path d="M213.172 32.982C213.172 30.4798 213.172 27.9685 213.172 25.4663C213.172 24.8875 213.313 24.6869 213.921 24.6915C217.399 24.7188 220.882 24.6915 224.365 24.6915C224.855 24.6915 225.037 24.8647 224.991 25.3478C224.957 25.6507 224.957 25.9565 224.991 26.2593C225.078 26.902 224.755 26.9977 224.206 26.9931C221.786 26.9931 219.365 26.9931 216.941 26.9931C216.282 26.9931 215.746 26.9157 215.878 27.9047C216.033 29.0806 216.01 30.2838 216.064 31.478C217.186 31.5008 218.312 31.5327 219.438 31.5418C220.728 31.5418 222.013 31.5418 223.298 31.5418C223.847 31.5418 224.17 31.6284 224.083 32.271C224.049 32.5739 224.049 32.8797 224.083 33.1826C224.129 33.6657 223.947 33.8435 223.457 33.8389C221.186 33.8389 218.916 33.8389 216.646 33.8161C216.037 33.8161 215.869 34.0121 215.896 34.5909C215.946 35.7942 215.942 37.0065 215.96 38.2371C217.145 38.2918 218.335 38.3784 219.52 38.4012C220.959 38.4331 222.394 38.4012 223.834 38.4012C224.982 38.4012 224.982 38.4012 224.987 39.6546C224.987 39.805 224.987 39.96 224.987 40.1104C224.978 41.104 224.978 41.104 223.825 41.104C222.385 41.104 220.946 41.1313 219.511 41.104C217.413 41.0629 215.32 40.99 213.226 40.9353L213.172 34.8051C213.172 34.199 213.172 33.5928 213.172 32.982Z" fill="#1E1E1E"/>
<path d="M117.92 41.1038C116.512 41.1038 116.558 41.1038 115.985 39.6726C115.677 38.8887 114.986 38.2597 115.077 37.3117C115.077 37.2206 114.764 37.0155 114.596 37.0155C112.248 36.9927 109.905 37.0155 107.558 37.0155C106.931 37.0155 106.65 37.4029 106.468 37.927C106.186 38.6471 105.891 39.3581 105.56 40.0555C105.378 40.4338 105.169 40.967 104.856 41.0764C104.269 41.2177 103.658 41.2177 103.071 41.0764C102.967 40.9384 102.896 40.7786 102.862 40.6089C102.828 40.4392 102.833 40.2641 102.876 40.0965C103.671 39.0482 103.784 37.7356 104.375 36.6053C105.147 35.1103 105.991 33.6017 106.423 31.9974C106.854 30.393 108.239 29.085 108.311 27.3029C108.403 26.96 108.557 26.637 108.766 26.3503C109.528 24.7961 110.196 24.4406 111.899 24.746C112.089 24.7824 112.289 25.065 112.389 25.2747C113.29 27.0092 114.042 28.8176 114.637 30.6802C114.819 31.1391 115.049 31.5775 115.322 31.9883C116.789 34.7229 117.52 37.772 119.146 40.4247C119.218 40.5432 118.996 40.9898 118.814 41.0764C118.521 41.1433 118.217 41.1525 117.92 41.1038ZM110.577 34.7229C111.485 34.7229 112.394 34.7503 113.302 34.6956C113.461 34.6956 113.756 34.217 113.72 34.1395C112.557 32.2845 112.049 30.1287 111.018 28.2144C110.945 28.1013 110.863 27.9946 110.773 27.8954L110.564 28.26C109.71 29.7914 109.283 31.5051 108.425 33.0502C107.567 34.5953 107.689 34.7229 109.447 34.7229H110.577Z" fill="#1E1E1E"/>
<path d="M72.8614 32.9001C72.8614 30.4754 72.9159 28.0507 72.8342 25.6305C72.8024 24.719 73.1203 24.6506 73.8649 24.6688C75.8992 24.719 77.9516 24.6688 79.9768 24.6916C80.7533 24.6916 82.9646 25.6032 83.6594 26.1774C84.622 26.9751 84.6674 28.2148 85.0806 29.2539C85.5347 30.3843 85.1215 31.7425 84.5902 32.6358C84.0611 33.5106 83.326 34.2416 82.4496 34.7646C81.5731 35.2875 80.5821 35.5863 79.5636 35.6348C78.3541 35.7152 77.1405 35.7152 75.931 35.6348C75.1727 35.5938 75.0819 35.931 75.1091 36.5463C75.15 37.6812 75.1091 38.8252 75.1091 39.9555C75.1091 40.3156 75.0592 40.9674 74.9593 40.981C74.3057 41.0495 73.6467 41.0495 72.9931 40.981C72.9341 40.981 72.8524 40.5936 72.8524 40.3885C72.8614 37.9137 72.8614 35.416 72.8614 32.9001ZM75.1318 30.0607C75.1318 30.7443 75.1318 31.428 75.1318 32.1071C75.1681 32.9184 75.545 33.2556 76.3306 33.3514C77.7473 33.5245 79.1004 33.1736 80.4536 32.8956C82.2018 32.5173 83.0055 29.7781 81.8158 28.4518C80.8123 27.3306 79.5454 26.9796 78.106 26.9796C75.1772 26.9796 75.0274 26.6515 75.1182 29.851C75.1318 29.9239 75.1318 30.0014 75.1318 30.0789V30.0607Z" fill="#1E1E1E"/>
<path d="M202.878 41.1038C200.204 41.2633 198.07 40.0828 196.421 38.1367C195.645 37.2696 195.077 36.235 194.763 35.1129C194.448 33.9908 194.394 32.811 194.605 31.6647C194.862 30.1312 195.512 28.6913 196.491 27.4863C197.471 26.2813 198.745 25.3526 200.19 24.7916C201.251 24.3224 202.422 24.1643 203.568 24.3358C205.317 24.6959 207.169 25.0468 208.631 26.2911C209.167 26.7469 209.222 27.0249 208.745 27.549C208.595 27.7177 208.427 27.8726 208.268 28.0321C207.542 28.7659 207.233 28.8981 206.552 28.2691C206.024 27.7685 205.389 27.3951 204.696 27.1771C204.003 26.9592 203.27 26.9025 202.551 27.0112C200.095 27.3257 198.224 28.889 197.656 31.1405C197.234 32.8178 197.584 34.1213 198.156 35.6071C199.482 39.0437 203.832 39.937 206.683 37.3664C206.965 37.1157 207.21 36.6372 207.492 36.6235C207.773 36.6098 208.023 37.0793 208.286 37.3482C208.45 37.5077 208.595 37.6809 208.768 37.804C209.222 38.1777 209.222 38.5423 208.768 38.9024C207.287 40.0464 205.775 41.122 203.773 41.0901C203.482 41.1038 203.183 41.1038 202.878 41.1038Z" fill="#1E1E1E"/>
<path d="M141.881 32.6764V26.2956C141.881 24.6958 141.881 24.6958 143.357 24.6958C146.535 24.6958 149.714 24.7186 152.865 24.6958C153.61 24.6958 153.714 24.9693 153.7 25.6074C153.664 27.3074 153.773 26.9747 152.438 26.9747C150.1 26.9747 147.757 27.0111 145.418 26.9747C144.664 26.9747 144.569 27.2664 144.596 27.8862C144.676 28.9482 144.676 30.0147 144.596 31.0767C144.492 32.0383 144.955 32.0292 145.65 32.0156C147.761 31.9837 149.877 32.0383 152.007 31.9882C152.765 31.9882 152.915 32.289 152.82 32.8998C152.799 33.051 152.799 33.2043 152.82 33.3555C152.901 33.9799 152.774 34.3172 152.007 34.2671C150.349 34.2078 148.687 34.2397 147.012 34.2671C146.267 34.2671 145.527 34.3127 144.782 34.3355C144.728 35.1513 144.664 35.9626 144.633 36.7739C144.61 37.4575 144.633 38.1412 144.633 38.8203C144.61 39.4037 144.692 40.4018 144.451 40.493C143.732 40.682 142.983 40.7223 142.249 40.6115C142.126 40.6115 141.931 40.1557 141.926 39.9324C141.881 37.5213 141.881 35.1012 141.881 32.6764Z" fill="#1E1E1E"/>
<path d="M88.7543 32.804C88.7543 30.3793 88.7861 27.9546 88.7543 25.5116C88.7543 24.7642 89.0358 24.6684 89.6625 24.673C91.4788 24.673 91.4788 24.6457 91.4788 26.3958C91.4788 30.042 91.4788 33.6882 91.4788 37.3344C91.4788 38.3691 91.4788 38.3782 92.6049 38.3782C94.7163 38.3782 96.8323 38.3782 98.9619 38.3782C100.111 38.3782 100.111 38.3782 100.115 39.627C100.115 39.9278 100.115 40.2332 100.115 40.5385C100.156 41.0764 99.8519 41.1265 99.4206 41.1219C96.0967 41.1219 92.7729 41.0946 89.4536 41.1219C88.7725 41.1219 88.7498 40.812 88.7543 40.3061C88.7543 37.8085 88.7543 35.3062 88.7543 32.804Z" fill="#1E1E1E"/>
<path d="M81.9436 52.6395C81.9162 52.4124 81.9162 52.1829 81.9436 51.9558C82.157 51.0853 81.3124 49.6496 82.3977 49.408C84.0823 49.0434 85.9803 49.0343 87.22 50.7754C87.6059 51.3132 87.2427 52.4025 86.498 52.9677C86.2164 53.1864 85.6897 53.3642 85.6716 53.5921C85.7051 53.9927 85.864 54.3724 86.1256 54.6768C86.389 55.0414 86.7704 55.3195 87.0656 55.6613C87.1518 55.7707 87.1246 55.9758 87.1518 56.1171C86.943 56.0806 86.6569 56.1171 86.5525 55.994C86.1801 55.5382 85.8941 55.0505 85.5308 54.6267C85.1675 54.2028 84.8724 53.6559 84.4365 53.5283C83.7919 53.3848 83.1215 53.4083 82.4885 53.5966C82.3477 53.6331 82.3886 54.417 82.3613 54.8546C82.3613 55.0824 82.3613 55.3103 82.3613 55.5382C82.3114 55.7434 82.2461 55.9445 82.1661 56.1398C82.058 55.975 81.9825 55.7909 81.9436 55.5975C81.9436 54.613 81.9436 53.624 81.9436 52.6395ZM84.3093 52.9631C84.6771 52.9985 85.0483 52.9645 85.4037 52.8628C85.6258 52.7954 85.8322 52.6841 86.0108 52.5353C86.1894 52.3866 86.3365 52.2035 86.4435 51.9969C86.5641 51.6774 86.5673 51.3252 86.4525 51.0035C86.3376 50.6819 86.1122 50.4119 85.8169 50.2421C85.0594 49.7982 84.1675 49.6444 83.3058 49.8091C83.102 49.8708 82.9165 49.9821 82.766 50.1332C82.6154 50.2843 82.5045 50.4705 82.4431 50.6751C82.3958 51.4152 82.4324 52.1583 82.5521 52.8902C82.5521 52.9357 82.8109 52.9768 82.9471 52.9813C83.2513 52.954 83.551 52.954 84.3093 52.954V52.9631Z" fill="#1E1E1E"/>
<path d="M154.596 52.9541C154.632 53.337 153.801 53.7107 154.596 54.1118C154.786 54.22 154.935 54.3896 155.017 54.5931C155.099 54.7966 155.111 55.0221 155.05 55.233C154.596 54.7772 154.142 54.3214 153.688 53.8976C153.511 53.7244 153.338 53.4418 153.134 53.4418C151.594 53.2002 151.454 53.3415 151.417 55.0005C151.417 55.2239 151.49 55.4882 151.417 55.6705C151.345 55.8528 151.063 55.9987 150.877 56.1582C150.763 56.0032 150.55 55.8528 150.545 55.7024C150.509 54.9458 150.545 54.1938 150.545 53.4235C150.545 52.2932 150.582 51.1447 150.545 50.028C150.518 49.3899 150.791 49.2669 151.331 49.3079C152.63 49.4036 153.956 49.0891 155.213 49.7637C155.713 50.0235 155.49 50.3744 155.554 50.698C155.084 50.4059 154.593 50.147 154.087 49.9232C152.398 49.276 151.467 49.8594 151.472 51.5412C151.476 53.223 151.181 52.9541 152.807 52.9541H154.596Z" fill="#1E1E1E"/>
<path d="M182.294 52.6486V51.5183C182.294 49.1027 182.294 49.0115 184.737 49.3625C185.645 49.4992 186.74 49.6222 187.394 50.552C187.99 51.2825 188.279 52.2181 188.197 53.1591C188.034 54.5264 186.603 56.0168 185.241 56.149C185.09 56.1606 184.938 56.1606 184.787 56.149L182.367 56.0031C182.335 55.2602 182.303 54.5173 182.285 53.7744C182.294 53.4097 182.294 53.0269 182.294 52.6486ZM182.748 53.1044C182.748 53.7789 182.717 54.4717 182.771 55.128C182.792 55.2497 182.842 55.3644 182.917 55.4621C182.992 55.5598 183.09 55.6376 183.202 55.6886C185.25 56.0077 186.835 55.1554 187.571 53.355C187.698 53.0314 187.843 52.562 187.702 52.3159C187.316 51.6368 186.903 50.8528 186.281 50.4563C185.528 50.0812 184.709 49.8597 183.87 49.8046C183.162 49.6997 182.807 50.2193 182.753 50.8528C182.703 51.5866 182.748 52.3432 182.748 53.0953V53.1044Z" fill="#1E1E1E"/>
<path d="M175.306 52.553C174.943 52.9632 174.738 53.387 174.543 53.3825C173.88 53.3825 173.58 53.5466 173.658 54.2621C173.708 54.768 173.812 55.315 172.922 55.2694C172.177 55.2329 172.245 54.7863 172.318 54.3578C172.473 53.4463 172.05 53.3187 171.301 53.3962C170.983 53.4281 170.484 53.583 170.493 52.9404C170.493 52.5302 170.297 51.9377 171.069 52.0288C171.978 52.1337 172.477 51.9012 172.327 50.8575C172.3 50.6569 172.559 50.4017 172.69 50.2012C172.951 50.3112 173.19 50.4654 173.399 50.6569C173.564 50.8883 173.653 51.1655 173.653 51.45C173.653 51.9741 173.903 52.0379 174.348 52.0607C174.611 52.0881 174.865 52.3205 175.306 52.553Z" fill="#1E1E1E"/>
<path d="M215.015 52.4982C215.317 52.4659 215.621 52.4659 215.923 52.4982C216.017 52.5231 216.104 52.5699 216.177 52.6349C216.249 52.6998 216.305 52.7811 216.341 52.872C216.686 54.5128 216.318 55.3833 214.979 55.8983C211.886 57.0925 209.839 54.6996 209.984 52.2749C210.038 51.4408 210.529 50.821 211.074 50.2194C211.209 50.0385 211.392 49.8997 211.603 49.819C211.813 49.7384 212.042 49.7192 212.263 49.7636C212.05 50.0553 211.846 50.3515 211.623 50.6341C210.147 52.5119 210.824 54.5583 212.436 55.6157C212.89 55.9211 215.206 55.5291 215.306 55.0962C215.43 54.4466 215.441 53.7804 215.337 53.1272C215.337 53.0315 214.674 53.0041 214.32 52.9586C214.17 52.9358 214.016 52.9586 213.866 52.9586C213.807 52.9586 213.703 52.8492 213.712 52.8173C213.748 52.7079 213.816 52.5301 213.884 52.5256C214.257 52.4982 214.638 52.4982 215.015 52.4982Z" fill="#1E1E1E"/>
<path d="M120.603 56.204L118.383 56.0399C118.53 55.3659 118.639 54.6843 118.71 53.998C118.764 52.9406 118.71 51.8741 118.71 50.8076C118.723 49.3081 118.723 49.3081 120.313 49.3081C121.275 49.3081 122.238 49.4084 123.196 49.4631C122.288 50.1467 121.253 49.6363 120.281 49.7365C119.2 49.8459 119.191 49.7776 119.177 50.835C119.142 51.2114 119.149 51.5906 119.2 51.9653C119.237 52.0837 119.301 52.1916 119.388 52.2797C119.475 52.3677 119.582 52.4334 119.7 52.4712C120.608 52.5213 121.516 52.4712 122.424 52.5031C122.547 52.5031 122.669 52.6307 122.792 52.6991C122.692 52.7811 122.592 52.9315 122.488 52.9361C121.961 52.9634 121.43 52.9361 120.898 52.9361C119.146 52.9361 119.173 52.9361 119.168 54.7592C119.168 55.3882 119.236 55.7437 119.999 55.6707C120.907 55.6069 121.816 55.6434 122.724 55.6707C122.905 55.6707 123.078 55.8303 123.255 55.9123C123.066 56.0041 122.866 56.07 122.66 56.1083C121.979 56.1083 121.298 56.1083 120.617 56.1083L120.603 56.204Z" fill="#1E1E1E"/>
<path d="M191.376 52.79C191.376 51.8056 191.349 50.8165 191.399 49.8321C191.434 49.7129 191.499 49.605 191.589 49.5188C191.678 49.4325 191.788 49.3709 191.907 49.3398C193.115 49.2942 194.328 49.3079 195.54 49.3398C195.663 49.3398 195.781 49.472 195.903 49.5449C195.794 49.6224 195.69 49.7728 195.576 49.7774C194.668 49.7774 193.76 49.8184 192.852 49.7774C192.148 49.7455 191.621 49.7774 191.821 50.7208C191.871 51.0226 191.871 51.3306 191.821 51.6324C191.739 52.2841 191.93 52.5439 192.657 52.5439C193.565 52.5439 194.546 52.2294 195.417 52.7855C194.541 52.9019 193.658 52.9552 192.775 52.945C191.867 52.8721 191.726 53.2276 191.817 53.9796C191.855 54.3584 191.855 54.7402 191.817 55.1191C191.78 55.6478 192.057 55.7116 192.502 55.7161C193.615 55.7161 194.727 55.8118 195.844 55.8665C194.759 56.4773 193.574 56.0807 192.466 56.1491C191.135 56.2312 191.376 56.1491 191.367 55.078C191.376 54.3215 191.376 53.5512 191.376 52.79Z" fill="#1E1E1E"/>
<path d="M159.191 52.6578V49.4673L162.524 49.2941C162.827 49.2711 163.13 49.2711 163.433 49.2941C163.501 49.2941 163.564 49.481 163.591 49.5904C163.591 49.6223 163.492 49.7271 163.437 49.7271C162.452 49.7271 161.466 49.7727 160.486 49.7271C159.836 49.6952 159.577 49.8411 159.577 50.5749C159.577 52.4618 159.537 52.4618 161.471 52.4755C161.925 52.4755 162.379 52.4755 162.833 52.4755C162.96 52.4755 163.083 52.5985 163.206 52.6669C163.11 52.7535 163.015 52.9039 162.91 52.9084C162.456 52.9358 162.002 52.9084 161.548 52.9084C159.505 52.9084 159.518 52.9084 159.591 54.9594C159.591 55.4152 159.664 55.6659 160.186 55.6522C161.171 55.6249 162.157 55.6294 163.137 55.6522C163.315 55.6522 163.487 55.8117 163.66 55.8983C163.537 55.9621 163.414 56.0898 163.292 56.0898C162.079 56.0898 160.867 56.1217 159.659 56.0898C159.541 56.0536 159.434 55.9877 159.348 55.8984C159.262 55.8091 159.201 55.6992 159.169 55.5793C159.119 54.5948 159.146 53.6058 159.146 52.6167L159.191 52.6578Z" fill="#1E1E1E"/>
<path d="M103.74 52.9042C103.756 53.1318 103.756 53.3602 103.74 53.5878C103.622 54.4219 104.03 55.3152 103.463 56.0992C103.372 55.2909 103.322 54.4786 103.313 53.6653C103.313 52.9908 103.013 52.9178 102.496 52.9589C102.269 52.9589 102.042 52.9589 101.814 52.9589C100.993 52.9589 99.8892 52.7036 99.4351 53.1275C98.981 53.5514 99.2535 54.668 99.2035 55.4839C99.213 55.6356 99.213 55.7879 99.2035 55.9396C99.2035 56.0034 99.0719 56.1037 99.0537 56.0946C98.9493 56.0353 98.7812 55.9488 98.7812 55.8713C98.7812 53.8203 98.7812 51.7693 98.7812 49.7183C98.7812 49.5952 98.9084 49.4722 98.972 49.3491C99.0661 49.4398 99.1499 49.5406 99.2217 49.6499C99.2535 49.7046 99.2217 49.7958 99.2217 49.8733C99.2974 50.7544 99.3731 51.6341 99.4487 52.5122C100.584 52.5122 101.719 52.5122 102.854 52.4849C103.013 52.4849 103.272 52.1294 103.308 51.9197C103.363 51.2406 103.308 50.5524 103.34 49.8733C103.385 49.6842 103.467 49.5061 103.581 49.3491C103.662 49.5394 103.716 49.7405 103.74 49.9462C103.74 50.9307 103.74 51.9197 103.74 52.9042Z" fill="#1E1E1E"/>
<path d="M78.3109 54.7773C77.0214 53.9614 75.5865 54.44 74.2242 54.3488C74.088 54.3488 73.9064 54.7043 73.7702 54.9186C73.5908 55.2962 73.3923 55.6643 73.1753 56.0215C73.0936 56.1309 72.7894 56.0808 72.585 56.0808C72.5406 55.9871 72.5294 55.881 72.5532 55.78C73.357 54.5904 73.6203 53.0863 74.6738 52.0426C74.7149 52.4122 74.7149 52.7852 74.6738 53.1547C74.6011 53.451 73.7656 53.8247 74.8191 53.8612C75.4866 53.8612 76.1813 53.8612 76.8261 53.8612C77.4709 53.8612 77.589 53.6333 77.2802 53.0453C76.8715 52.2979 76.372 51.596 76.5173 50.6753C77.4028 51.9241 78.3473 53.1319 78.3109 54.7773Z" fill="#1E1E1E"/>
<path d="M126.443 52.4618C126.443 53.3095 126.302 53.7881 126.48 54.0433C126.627 54.2018 126.741 54.3893 126.813 54.5941C126.885 54.7989 126.913 55.0164 126.897 55.2329C126.243 55.0415 126.239 54.3715 125.93 53.975C125.081 52.9085 125.853 52.0425 126.03 51.1309C126.189 50.3288 126.938 49.9277 127.719 49.5995C129.081 49.0116 130.444 49.2258 131.265 50.2832C131.32 50.3516 131.32 50.5658 131.265 50.584C131.145 50.6626 130.998 50.6904 130.857 50.6615C130.603 50.5475 130.403 50.3197 130.13 50.2057C129.604 50.0188 128.959 49.6406 128.532 49.7955C127.794 50.0855 127.145 50.5667 126.652 51.1902C126.357 51.6232 126.443 52.3479 126.443 52.4618Z" fill="#1E1E1E"/>
<path d="M206.361 52.7082C206.361 51.7966 206.361 50.8851 206.361 49.9735C206.389 49.7652 206.439 49.5605 206.51 49.3628C206.724 49.5314 207.01 49.659 207.128 49.8778C207.235 50.1451 207.279 50.4338 207.255 50.721C207.255 52.3071 207.255 53.8886 207.255 55.4702C207.255 55.6935 207.051 56.0673 206.887 56.1037C206.338 56.2177 206.356 55.7892 206.361 55.4018C206.361 54.5176 206.361 53.6152 206.361 52.7082Z" fill="#1E1E1E"/>
<path d="M112.82 53.4099C112.82 52.6533 112.843 51.8922 112.82 51.131C112.78 49.9597 112.271 49.5951 111.109 49.9369C110.872 50.0098 110.654 50.4747 110.582 49.8776C110.607 49.7589 110.662 49.6486 110.742 49.557C110.821 49.4653 110.922 49.3953 111.036 49.3535C112.321 49.3079 113.606 49.3216 114.886 49.3535C115.096 49.3819 115.301 49.4386 115.495 49.5221C115.274 49.6408 115.039 49.7311 114.796 49.791C113.433 49.9734 113.288 50.1055 113.274 51.3999C113.274 52.8402 113.274 54.2804 113.274 55.7207C113.244 55.8567 113.194 55.9874 113.125 56.1081C113.025 55.9714 112.843 55.8346 112.839 55.6933C112.82 54.9094 112.82 54.1483 112.82 53.4099Z" fill="#1E1E1E"/>
<path d="M136.886 53.2275C136.886 53.9841 136.886 54.7452 136.886 55.5063C136.854 55.715 136.796 55.9187 136.713 56.1125C136.589 55.8926 136.502 55.654 136.454 55.4061C136.427 54.1937 136.454 52.9768 136.454 51.7599C136.454 50.0279 136.454 50.0279 134.638 49.7681C134.504 49.7312 134.374 49.6792 134.252 49.6132C134.393 49.5129 134.533 49.3306 134.674 49.3306C136.036 49.3306 137.399 49.2987 138.761 49.3306C138.911 49.3306 139.215 49.7864 139.161 49.9094C138.965 50.4518 138.797 49.9094 138.593 49.8547C137.435 49.5767 136.963 49.9504 136.922 51.1674C136.886 51.8647 136.886 52.5438 136.886 53.2275Z" fill="#1E1E1E"/>
<path d="M147.33 51.9835C147.33 52.6581 147.33 53.3508 147.33 54.0117C147.33 54.9643 146.794 55.5294 145.995 55.8941C144.919 56.3863 143.57 56.2632 142.953 55.6206C142.876 55.5022 142.82 55.371 142.789 55.2332C142.939 55.2069 143.093 55.2069 143.243 55.2332C143.438 55.3016 143.602 55.4702 143.797 55.534C145.405 56.049 146.785 55.1147 146.88 53.4374C146.908 52.9817 146.849 52.5259 146.88 52.0701C146.98 51.1586 146.59 50.1923 147.135 49.3354L147.412 51.9562L147.33 51.9835Z" fill="#1E1E1E"/>
<path d="M224.977 52.7765C224.977 53.7656 224.977 54.7501 224.977 55.7345C224.977 55.8621 224.864 55.9898 224.8 56.1128C224.69 56.0386 224.584 55.9579 224.482 55.8713C224.155 55.5522 223.833 55.2332 223.52 54.905C223.12 54.4857 222.521 54.1667 222.716 53.4192C223.111 53.7382 223.506 54.0664 223.906 54.3809C224.06 54.4994 224.228 54.5996 224.387 54.7045C224.455 54.5034 224.503 54.2956 224.528 54.0846C224.528 52.6444 224.528 51.2041 224.528 49.7593C224.557 49.623 224.611 49.4933 224.687 49.3765C224.782 49.5223 224.959 49.6727 224.959 49.8322C224.977 50.8076 224.977 51.7921 224.977 52.7765Z" fill="#1E1E1E"/>
<path d="M219.53 52.5894C219.53 51.9832 219.498 51.377 219.53 50.7663C219.566 50.2831 219.689 49.8091 219.77 49.3306C220.143 49.7863 220.524 50.2421 220.874 50.6979C220.946 50.7936 220.874 50.9941 220.874 51.1537C220.74 51.1195 220.613 51.0641 220.497 50.9896C220.252 50.748 220.02 50.5657 219.975 51.0899C219.929 51.614 219.975 52.1473 219.975 52.676C219.975 53.6559 219.975 54.6358 219.975 55.6157C219.975 55.7935 219.816 55.9667 219.734 56.1399C219.64 55.9516 219.574 55.7504 219.539 55.5428C219.53 54.5492 219.53 53.5693 219.53 52.5894Z" fill="#1E1E1E"/>
<path d="M200.766 56.1443C200.703 56.1443 199.949 56.2765 199.731 55.9985C199.413 55.5883 198.396 55.9392 198.678 55.1598C198.982 54.3075 199.345 55.7569 199.822 55.2783C199.872 55.2282 200.276 55.6247 200.526 55.6749C202.151 55.9711 202.596 55.5928 202.737 53.8518C202.781 53.6878 202.855 53.5333 202.955 53.396C203.068 53.497 203.174 53.6051 203.273 53.7196C203.759 54.2939 203.132 55.962 202.365 56.117C201.833 56.1672 201.299 56.1764 200.766 56.1443Z" fill="#1E1E1E"/>
<path d="M93.2624 49.3081C93.6577 49.3105 94.0481 49.3966 94.408 49.5607C94.7679 49.7249 95.0893 49.9634 95.3511 50.2607C95.4238 50.329 95.4238 50.4703 95.4556 50.5752C95.322 50.6222 95.1855 50.6602 95.0469 50.6891C94.9775 50.7024 94.9057 50.6877 94.8471 50.6481C93.4168 49.2808 92.1544 49.7046 90.9511 50.9854C90.8649 51.0765 90.7014 51.0948 90.5697 51.1494C90.5697 50.9216 90.4744 50.6116 90.5697 50.484C90.9019 50.0978 91.3164 49.7915 91.7825 49.588C92.2486 49.3844 92.7544 49.2888 93.2624 49.3081Z" fill="#1E1E1E"/>
<path d="M201.819 52.9539C201.042 52.9539 200.297 52.9858 199.548 52.5346C199.287 52.3876 199.072 52.1701 198.927 51.9067C198.783 51.6432 198.715 51.3444 198.731 51.0442C198.853 50.5474 198.912 49.4854 200.007 49.7634C200.007 49.8364 200.034 49.923 200.007 49.9822C199.239 51.5683 199.367 51.9876 200.82 52.4935C201.16 52.6257 201.75 52.2155 201.819 52.9539Z" fill="#1E1E1E"/>
<path d="M107.889 52.617C107.626 53.8339 108.166 55.0098 107.526 56.0809C107.476 54.9688 107.349 53.8522 107.394 52.7446C107.439 51.6371 107.04 50.4658 107.671 49.3901C107.748 50.4977 107.825 51.6098 107.889 52.617Z" fill="#1E1E1E"/>
<path d="M141.882 51.7192C142.036 51.0492 141.601 50.1513 142.155 49.3628C142.218 50.1741 142.282 50.9808 142.336 51.7921C142.404 52.8039 142.086 53.8704 142.79 54.7956C142.863 54.8914 142.79 55.0919 142.79 55.2514C142.663 55.1967 142.481 55.1785 142.413 55.0828C142.175 54.8233 142.001 54.511 141.905 54.1712C141.832 53.4101 141.882 52.6444 141.882 51.7192Z" fill="#1E1E1E"/>
<path d="M91.0245 55.2328C89.7531 54.9001 90.1436 53.6103 89.7213 52.8036C89.4125 52.2156 89.9438 51.5228 90.5704 51.1309C90.531 51.89 90.531 52.6506 90.5704 53.4097C90.6806 54.027 90.8323 54.6361 91.0245 55.2328Z" fill="#1E1E1E"/>
<path d="M74.6776 52.0426C74.4732 51.286 74.9954 50.6753 75.1634 50.0326C75.227 49.7683 75.6175 49.5768 75.89 49.3809C76.0897 49.6634 76.3122 49.9369 76.4848 50.2377C76.5484 50.3517 76.4848 50.5294 76.4848 50.6935C76.2396 51.1493 75.7628 49.3809 75.5403 50.8029C75.4813 51.2495 74.9818 51.6324 74.6776 52.0426Z" fill="#1E1E1E"/>
<path d="M200.799 49.3077C201.335 49.3077 201.775 49.1801 201.912 49.3077C202.284 49.7133 203.156 49.4581 203.169 50.2192C203.169 50.7069 202.956 50.593 202.665 50.356C202.431 50.2054 202.173 50.096 201.903 50.0324C201.576 49.9139 201.24 49.8136 200.908 49.7179C200.577 49.6222 200.304 49.5675 200 49.49L200.799 49.3077Z" fill="#1E1E1E"/>
<path d="M213.843 49.2715C214.247 49.3854 214.928 49.5723 215.6 49.782C215.7 49.8139 215.773 49.9506 215.841 50.0509C215.841 50.0509 215.741 50.2013 215.691 50.2013C214.533 50.2013 213.461 49.472 212.263 49.7728C212.251 49.6988 212.251 49.6235 212.263 49.5495C212.276 49.5131 212.297 49.48 212.325 49.4525C212.352 49.425 212.385 49.4037 212.421 49.39C212.789 49.349 213.171 49.3079 213.843 49.2715Z" fill="#1E1E1E"/>
<path d="M94.6566 55.6887C94.1073 56.0497 93.456 56.2219 92.8008 56.1791C92.1456 56.1364 91.522 55.8811 91.024 55.4517C90.9876 55.4152 91.024 55.3058 91.024 55.2329C91.6277 55.4203 92.2417 55.5725 92.863 55.6887C93.4602 55.7275 94.0593 55.7275 94.6566 55.6887Z" fill="#1E1E1E"/>
<path d="M130.529 55.6887C129.98 56.0497 129.329 56.2219 128.674 56.1791C128.018 56.1364 127.395 55.8811 126.897 55.4517C126.86 55.4152 126.897 55.3058 126.897 55.2329C127.5 55.4203 128.115 55.5725 128.736 55.6887C129.333 55.7275 129.932 55.7275 130.529 55.6887Z" fill="#1E1E1E"/>
<path d="M220.891 51.1309C221.703 51.7234 222.707 52.1655 222.707 53.4097C221.894 52.8263 220.891 52.3842 220.891 51.1309Z" fill="#1E1E1E"/>
<path d="M155.504 50.6753C156.385 51.9834 156.149 52.5759 154.596 52.9542C154.927 52.2158 155.872 51.7099 155.504 50.6753Z" fill="#1E1E1E"/>
<path d="M79.1596 55.9851C79.0461 56.0398 78.9099 56.1628 78.81 56.1401C78.6329 56.0945 78.3559 55.9851 78.3559 55.862C78.3038 55.503 78.2886 55.1395 78.3105 54.7773C78.3105 54.7773 78.4921 54.7499 78.5103 54.7773C78.7646 55.1829 78.9462 55.584 79.1596 55.9851Z" fill="#1E1E1E"/>
<path d="M156.158 55.8621C155.966 55.9808 155.76 56.0757 155.545 56.1447C155.018 56.1903 155.023 55.8166 155.059 55.4565C155.059 55.379 155.236 55.2423 155.254 55.2514C155.54 55.4246 155.808 55.616 156.158 55.8621Z" fill="#1E1E1E"/>
<path d="M95.275 54.5859C95.3938 54.7792 95.4898 54.9857 95.5611 55.2012C95.602 55.7299 95.2296 55.7254 94.8709 55.6889C94.7937 55.6889 94.6575 55.5112 94.6711 55.4929C94.8391 55.2331 95.0344 54.9369 95.275 54.5859Z" fill="#1E1E1E"/>
<path d="M131.148 54.5859C131.267 54.7792 131.363 54.9857 131.434 55.2012C131.475 55.7299 131.102 55.7254 130.744 55.6889C130.667 55.6889 130.53 55.5112 130.544 55.4929C130.712 55.2331 130.907 54.9369 131.148 54.5859Z" fill="#1E1E1E"/>
<path d="M202.728 53.4099C202.383 53.3416 201.861 53.6333 201.82 52.9542C202.165 53.0316 202.692 52.7354 202.728 53.4099Z" fill="#1E1E1E"/>
</g>
<defs>
<clipPath id="clip0_5_415">
<rect width="198" height="32" fill="white" transform="translate(27 24.2402)"/>
</clipPath>
</defs>
</svg>
