<svg width="198" height="33" viewBox="0 0 198 33" fill="none" xmlns="http://www.w3.org/2000/svg">
<g clip-path="url(#clip0_5_417)">
<path d="M0 16.0921C0 11.2305 0 6.3689 0 1.50729C0 0.263023 0 0.240234 1.13973 0.240234H30.6547C31.7853 0.240234 31.7853 0.263023 31.7853 1.2794C31.7853 11.2214 31.7853 21.1664 31.7853 31.1145C31.7853 32.1445 31.7853 32.1445 30.6502 32.1445H1.13519C0 32.1445 0 32.1445 0 30.8957C0 25.9551 0 21.0206 0 16.0921ZM30.8772 11.1469C30.8772 8.26644 30.8772 5.3905 30.8772 2.51911C30.8772 1.87191 30.7728 1.60756 30.0372 1.60756C26.4045 1.64402 22.7719 1.60756 19.1666 1.60756C16.6101 1.60756 14.0537 1.65314 11.4972 1.67593C11.4427 4.30575 11.3792 6.93558 11.3428 9.56996C11.3519 10.7231 11.3519 10.7231 12.6006 10.7231C15.2433 10.7231 17.8861 10.755 20.5243 10.7231C21.278 10.7231 21.3643 11.0102 21.3552 11.6346C21.3234 14.2098 21.3552 16.7849 21.3552 19.3828C21.3552 21.0509 21.5141 21.2059 23.0807 21.2059C25.1195 21.2059 27.1674 21.2059 29.1926 21.2059C30.7001 21.2059 30.8727 21.0282 30.8817 19.556C30.8772 16.753 30.8772 13.95 30.8772 11.1469ZM0.908153 21.4748C0.908153 24.5103 0.908153 27.5412 0.908153 30.5903C0.908153 31.0461 1.01259 31.2694 1.52116 31.2694C4.31524 31.2512 7.10932 31.2512 9.90341 31.2694C10.4438 31.233 10.4438 30.9322 10.4438 30.5265C10.4438 24.688 10.4438 18.8496 10.4438 13.002C10.4438 12.022 10.0941 11.6346 9.14964 11.6346C6.65676 11.6073 4.1548 11.6346 1.671 11.6118C1.09886 11.6346 0.908153 11.7668 0.908153 12.3821C0.908153 15.413 0.908153 18.4439 0.908153 21.4748ZM5.68504 10.7231C7.04727 10.7231 8.40949 10.7231 9.77172 10.7231C10.2258 10.7231 10.4665 10.6593 10.4619 10.126C10.4498 7.48555 10.4438 4.83901 10.4438 2.1864C10.4438 1.64858 10.1759 1.60756 9.74902 1.60756C7.02456 1.60756 4.3001 1.63947 1.57565 1.60756C0.908153 1.60756 0.908153 1.93572 0.908153 2.42796C0.908153 4.79799 0.908153 7.127 0.908153 9.47881C0.908153 10.7231 0.908153 10.7231 2.27038 10.7231C3.4192 10.7231 4.54076 10.7231 5.68504 10.7231ZM11.4336 26.5613V31.0826C12.9957 31.1327 14.5622 31.2239 16.1243 31.2284C17.541 31.2284 18.9531 31.1418 20.3699 31.0917C20.3971 29.6651 20.4425 28.234 20.4425 26.8074C20.4425 25.2988 20.4017 23.7947 20.3789 22.2861C18.8169 22.2314 17.2549 22.1403 15.6883 22.1357C14.2762 22.1357 12.8594 22.2268 11.4473 22.2724L11.4336 26.5613ZM23.839 22.0719C23.0353 22.1357 21.9183 21.9078 21.5141 22.3453C21.11 22.7829 21.3688 23.8995 21.3416 24.7154C21.3416 24.9387 21.2508 25.235 21.3416 25.3763C21.5913 25.6999 21.9092 26.1465 22.2497 26.1875C23.1423 26.2992 24.0453 26.2992 24.9379 26.1875C25.1357 26.123 25.3184 26.0186 25.4745 25.8807C25.6307 25.7427 25.7571 25.5742 25.846 25.3854C26.0004 25.0846 25.8778 24.647 25.8778 24.2733C25.9051 22.1175 25.9051 22.1175 23.839 22.0719ZM23.2578 31.233C23.7845 31.233 24.3112 31.2694 24.8334 31.233C25.6871 31.1555 25.8824 30.7453 25.8824 29.1865C25.8824 27.6278 25.6826 27.1994 24.8244 27.1538C23.8526 27.0991 22.8764 27.1538 21.9001 27.1538C21.3416 27.131 21.3416 27.4227 21.3416 27.842C21.3416 28.7536 21.3915 29.6651 21.3416 30.5493C21.2962 31.2239 21.6413 31.274 22.1498 31.2466C22.5086 31.233 22.8855 31.233 23.2578 31.233ZM26.7905 24.0591H26.7633C26.795 24.7291 26.5816 25.75 26.9176 25.987C27.4308 26.3516 28.3253 26.183 29.0563 26.224C29.356 26.224 29.6603 26.224 29.9645 26.224C30.5684 26.2832 30.9589 26.2012 30.8727 25.4173C30.7909 24.3736 30.8136 23.3207 30.7909 22.2724C29.683 22.2223 28.5705 22.1995 27.4671 22.1038C26.786 22.0445 26.7406 22.4046 26.7678 22.9151C26.7905 23.3025 26.7905 23.6808 26.7905 24.0591ZM28.9428 27.131C28.5659 27.131 28.1845 27.1583 27.8122 27.131C27.1129 27.0672 26.6407 27.131 26.7723 28.0425C26.9131 29.068 26.8949 30.1118 26.9494 31.1509C27.9938 31.1509 29.0382 31.1828 30.0826 31.2239C30.5957 31.2239 30.9362 31.1965 30.8908 30.522C30.8318 29.6104 30.859 28.6989 30.8908 27.7873C30.8908 27.3315 30.8272 27.0672 30.3005 27.0991C29.8464 27.1629 29.3924 27.131 28.9428 27.131Z" fill="#1E1E1E"/>
<path d="M109.887 8.89985C109.887 11.3291 109.887 13.7584 109.887 16.1923C109.887 16.8076 109.827 17.1038 109.074 17.1539C108.63 17.2066 108.18 17.1307 107.778 16.9353C107.376 16.7399 107.038 16.433 106.803 16.051C105.382 14.0319 103.879 12.0812 102.313 10.1806C101.259 8.89985 100.278 7.53253 99.2566 6.21989C99.107 6.04841 98.9478 5.88559 98.7798 5.73221C98.6655 5.97939 98.5875 6.24192 98.5482 6.51159C98.5482 9.70202 98.5482 12.8924 98.5482 16.0829C98.5346 17.1038 98.5346 17.1038 97.3949 17.1038H96.9408C95.8329 17.1038 95.8147 17.1038 95.8147 16.0555C95.8147 11.2744 95.8147 6.48424 95.8147 1.71227C95.8147 0.983033 95.851 0.595624 96.7683 0.66399C97.8081 0.741472 98.8933 0.536373 99.1476 1.97207C101.418 4.08686 102.739 6.95369 104.91 9.14597C105.518 9.76127 105.981 10.5133 106.531 11.197C106.668 11.3418 106.82 11.4717 106.985 11.5844C107.068 11.3888 107.125 11.1836 107.158 10.9736C107.158 8.08857 107.158 5.20351 107.158 2.3139C107.162 0.695894 107.162 0.695894 108.851 0.695894C109.873 0.695894 109.882 0.695894 109.887 1.83989C109.887 4.20081 109.887 6.55261 109.887 8.89985Z" fill="#1E1E1E"/>
<path d="M129.894 8.89996C129.603 6.52992 130.729 4.6658 132.019 2.93385C132.927 1.6987 134.48 1.21102 135.86 0.755248C138.862 -0.229228 141.564 0.755247 144.007 2.55556C144.433 2.86549 144.665 3.43521 145.033 3.84541C145.417 4.27253 145.689 4.78967 145.823 5.34946C146.136 6.43877 146.731 7.44147 146.672 8.63105C146.495 13.1068 144.547 15.8688 140.056 17.0264C138.702 17.3926 137.274 17.3879 135.922 17.0128C134.57 16.6376 133.343 15.9058 132.369 14.8934C130.639 13.1842 129.653 11.3019 129.894 8.89996ZM137.904 2.97487C136.596 2.71052 135.524 3.38507 134.562 4.39689C133.44 5.58191 132.523 6.8672 132.6 8.59003C132.791 13.0019 135.179 14.4969 138.362 14.825C139.902 14.98 141.023 13.9135 142.19 13.1432C142.867 12.6875 144.034 9.5426 143.929 8.65384C143.611 6.01034 142.086 2.83814 137.904 2.97487Z" fill="#1E1E1E"/>
<path d="M150.754 8.58556C150.754 6.23831 150.786 3.89107 150.754 1.54383C150.754 0.814585 151.004 0.68241 151.662 0.691526C154.001 0.727988 156.344 0.627717 158.678 0.732546C159.467 0.746646 160.246 0.917862 160.97 1.23628C161.693 1.5547 162.346 2.01399 162.891 2.58755C164.304 4.06882 164.172 5.77798 163.704 7.51448C163.35 8.818 162.678 9.962 161.111 10.3129C160.362 10.4816 160.285 11.0422 160.775 11.735C161.729 13.1023 162.732 14.4058 163.713 15.7412C163.909 16.0056 164.095 16.2745 164.285 16.5434L163.427 16.6573C161.67 16.9035 160.562 16.2016 159.745 14.5836C159.291 13.672 158.519 12.8516 158.019 11.8899C157.908 11.6466 157.722 11.4458 157.488 11.3177C157.253 11.1895 156.984 11.1409 156.72 11.1789C155.685 11.2792 154.641 11.2701 153.596 11.3065C153.56 12.2728 153.51 13.2436 153.483 14.2098C153.483 14.7431 153.483 15.2718 153.483 15.8005C153.483 17.2772 153.565 17.104 152.629 17.1222C151.067 17.1496 150.781 16.949 150.768 15.641C150.754 13.2846 150.754 10.9374 150.754 8.58556ZM155.985 8.9365C157.229 8.83168 158.378 9.0231 159.518 8.48073C160.657 7.93836 161.161 7.4051 161.198 6.08335C161.252 5.56006 161.14 5.03292 160.876 4.57819C160.612 4.12345 160.211 3.76469 159.731 3.5538C157.987 2.79265 156.139 2.97496 154.323 3.01598C154.194 3.03165 154.07 3.07293 153.958 3.13739C153.846 3.20186 153.747 3.28821 153.669 3.39139C153.59 3.49456 153.532 3.61247 153.5 3.73819C153.467 3.86392 153.46 3.99492 153.478 4.12352C153.506 4.8801 153.478 5.63669 153.478 6.40239C153.478 7.1681 153.274 8.33944 153.701 8.74964C154.128 9.15983 155.258 8.90004 155.985 8.9365Z" fill="#1E1E1E"/>
<path d="M186.172 8.98204C186.172 6.47983 186.172 3.96851 186.172 1.4663C186.172 0.887465 186.313 0.686924 186.921 0.691482C190.399 0.718829 193.882 0.691482 197.365 0.691482C197.855 0.691482 198.037 0.864677 197.991 1.3478C197.957 1.65067 197.957 1.95648 197.991 2.25935C198.078 2.90199 197.755 2.99771 197.206 2.99315C194.786 2.99315 192.365 2.99315 189.941 2.99315C189.282 2.99315 188.746 2.91567 188.878 3.9047C189.033 5.0806 189.01 6.28385 189.064 7.47798C190.186 7.50077 191.312 7.53267 192.438 7.54179C193.728 7.54179 195.013 7.54179 196.298 7.54179C196.847 7.54179 197.17 7.62839 197.083 8.27103C197.049 8.57392 197.049 8.87969 197.083 9.18258C197.129 9.6657 196.947 9.84345 196.457 9.8389C194.186 9.8389 191.916 9.8389 189.646 9.81611C189.037 9.81611 188.869 10.0121 188.896 10.5909C188.946 11.7942 188.942 13.0065 188.96 14.2371C190.145 14.2918 191.335 14.3784 192.52 14.4012C193.959 14.4331 195.394 14.4012 196.834 14.4012C197.982 14.4012 197.982 14.4012 197.987 15.6546C197.987 15.805 197.987 15.96 197.987 16.1104C197.978 17.104 197.978 17.104 196.825 17.104C195.385 17.104 193.946 17.1313 192.511 17.104C190.413 17.0629 188.32 16.99 186.226 16.9353L186.172 10.8051C186.172 10.199 186.172 9.59278 186.172 8.98204Z" fill="#1E1E1E"/>
<path d="M90.9197 17.1038C89.5121 17.1038 89.5575 17.1038 88.9854 15.6726C88.6766 14.8887 87.9864 14.2597 88.0772 13.3117C88.0772 13.2206 87.7639 13.0155 87.5959 13.0155C85.2483 12.9927 82.9053 13.0155 80.5577 13.0155C79.9311 13.0155 79.6496 13.4029 79.4679 13.927C79.1864 14.6471 78.8912 15.3581 78.5598 16.0555C78.3781 16.4338 78.1693 16.967 77.856 17.0764C77.2694 17.2177 76.6579 17.2177 76.0714 17.0764C75.9674 16.9384 75.8959 16.7786 75.8621 16.6089C75.8283 16.4392 75.8331 16.2641 75.8762 16.0965C76.6708 15.0482 76.7843 13.7356 77.3746 12.6053C78.1466 11.1103 78.9911 9.6017 79.4225 7.99737C79.8539 6.39304 81.2388 5.08496 81.3115 3.30288C81.4031 2.95999 81.557 2.63704 81.7656 2.35031C82.5284 0.796116 83.1959 0.440611 84.8987 0.745981C85.0894 0.782443 85.2892 1.06502 85.3891 1.27468C86.2898 3.00921 87.0417 4.81758 87.6368 6.68018C87.819 7.13911 88.0488 7.57755 88.3224 7.98825C89.7891 10.7229 90.5201 13.772 92.1457 16.4247C92.2184 16.5432 91.9959 16.9898 91.8143 17.0764C91.5206 17.1433 91.2169 17.1525 90.9197 17.1038ZM83.5773 10.7229C84.4855 10.7229 85.3936 10.7503 86.3018 10.6956C86.4607 10.6956 86.7558 10.217 86.7195 10.1395C85.5571 8.28451 85.0485 6.12869 84.0178 4.21443C83.9452 4.10132 83.8631 3.99459 83.7726 3.89539L83.5637 4.26001C82.71 5.79142 82.2832 7.50513 81.425 9.05021C80.5668 10.5953 80.6894 10.7229 82.4467 10.7229H83.5773Z" fill="#1E1E1E"/>
<path d="M45.8614 8.90014C45.8614 6.47541 45.9159 4.05068 45.8342 1.63052C45.8024 0.718966 46.1203 0.650599 46.8649 0.66883C48.8992 0.718966 50.9516 0.66883 52.9768 0.691619C53.7533 0.691619 55.9646 1.60317 56.6594 2.17745C57.622 2.97505 57.6674 4.21476 58.0806 5.25393C58.5347 6.38426 58.1215 7.74247 57.5902 8.63579C57.0611 9.51063 56.326 10.2416 55.4496 10.7646C54.5731 11.2875 53.5821 11.5863 52.5636 11.6348C51.3541 11.7152 50.1405 11.7152 48.931 11.6348C48.1727 11.5938 48.0819 11.931 48.1091 12.5463C48.15 13.6812 48.1091 14.8252 48.1091 15.9555C48.1091 16.3156 48.0592 16.9674 47.9593 16.981C47.3057 17.0495 46.6467 17.0495 45.9931 16.981C45.9341 16.981 45.8524 16.5936 45.8524 16.3885C45.8614 13.9137 45.8614 11.416 45.8614 8.90014ZM48.1318 6.06066C48.1318 6.74432 48.1318 7.42798 48.1318 8.10709C48.1681 8.91837 48.545 9.25564 49.3306 9.35135C50.7473 9.52455 52.1004 9.1736 53.4536 8.89558C55.2018 8.51729 56.0055 5.77807 54.8158 4.45177C53.8123 3.33056 52.5454 2.97961 51.106 2.97961C48.1772 2.97961 48.0274 2.65145 48.1182 5.851C48.1318 5.92392 48.1318 6.0014 48.1318 6.07889V6.06066Z" fill="#1E1E1E"/>
<path d="M175.878 17.1038C173.204 17.2633 171.07 16.0828 169.421 14.1367C168.645 13.2696 168.077 12.235 167.763 11.1129C167.448 9.99077 167.394 8.81103 167.605 7.66467C167.862 6.13123 168.512 4.6913 169.491 3.48629C170.471 2.28128 171.745 1.35264 173.19 0.791579C174.251 0.322363 175.422 0.164337 176.568 0.335803C178.317 0.695866 180.169 1.04681 181.631 2.29108C182.167 2.74686 182.222 3.02488 181.745 3.54902C181.595 3.71766 181.427 3.87262 181.268 4.03214C180.542 4.76594 180.233 4.89812 179.552 4.26915C179.024 3.76853 178.389 3.39509 177.696 3.17715C177.003 2.9592 176.27 2.90245 175.551 3.01121C173.095 3.32569 171.224 4.889 170.656 7.14053C170.234 8.81779 170.584 10.1213 171.156 11.6071C172.482 15.0437 176.832 15.937 179.683 13.3664C179.965 13.1157 180.21 12.6372 180.492 12.6235C180.773 12.6098 181.023 13.0793 181.286 13.3482C181.45 13.5077 181.595 13.6809 181.768 13.804C182.222 14.1777 182.222 14.5423 181.768 14.9024C180.287 16.0464 178.775 17.122 176.773 17.0901C176.482 17.1038 176.183 17.1038 175.878 17.1038Z" fill="#1E1E1E"/>
<path d="M114.881 8.67643V2.29557C114.881 0.695801 114.881 0.695801 116.357 0.695801C119.535 0.695801 122.714 0.71859 125.865 0.695801C126.61 0.695801 126.714 0.969266 126.7 1.60735C126.664 3.30739 126.773 2.97468 125.438 2.97468C123.1 2.97468 120.757 3.01114 118.418 2.97468C117.664 2.97468 117.569 3.26637 117.596 3.88623C117.676 4.94818 117.676 6.0147 117.596 7.07666C117.492 8.03834 117.955 8.02923 118.65 8.01556C120.761 7.98365 122.877 8.03834 125.007 7.98821C125.765 7.98821 125.915 8.28902 125.82 8.89976C125.799 9.05097 125.799 9.20433 125.82 9.35554C125.901 9.97995 125.774 10.3172 125.007 10.2671C123.349 10.2078 121.687 10.2397 120.012 10.2671C119.267 10.2671 118.527 10.3127 117.782 10.3355C117.728 11.1513 117.664 11.9626 117.633 12.7739C117.61 13.4575 117.633 14.1412 117.633 14.8203C117.61 15.4037 117.692 16.4018 117.451 16.493C116.732 16.682 115.983 16.7223 115.249 16.6115C115.126 16.6115 114.931 16.1557 114.926 15.9324C114.881 13.5213 114.881 11.1012 114.881 8.67643Z" fill="#1E1E1E"/>
<path d="M61.7543 8.80404C61.7543 6.37931 61.7861 3.95459 61.7543 1.51163C61.7543 0.764156 62.0358 0.668443 62.6625 0.673001C64.4788 0.673001 64.4788 0.645655 64.4788 2.39583C64.4788 6.04204 64.4788 9.68824 64.4788 13.3344C64.4788 14.3691 64.4788 14.3782 65.6049 14.3782C67.7163 14.3782 69.8323 14.3782 71.9619 14.3782C73.1108 14.3782 73.1108 14.3782 73.1153 15.627C73.1153 15.9278 73.1153 16.2332 73.1153 16.5385C73.1562 17.0764 72.8519 17.1265 72.4206 17.1219C69.0967 17.1219 65.7729 17.0946 62.4536 17.1219C61.7725 17.1219 61.7498 16.812 61.7543 16.3061C61.7543 13.8085 61.7543 11.3062 61.7543 8.80404Z" fill="#1E1E1E"/>
<path d="M54.9436 28.6395C54.9162 28.4124 54.9162 28.1829 54.9436 27.9558C55.157 27.0853 54.3124 25.6496 55.3977 25.408C57.0823 25.0434 58.9803 25.0343 60.22 26.7754C60.6059 27.3132 60.2427 28.4025 59.498 28.9677C59.2164 29.1864 58.6897 29.3642 58.6716 29.5921C58.7051 29.9927 58.864 30.3724 59.1256 30.6768C59.389 31.0414 59.7704 31.3195 60.0656 31.6613C60.1518 31.7707 60.1246 31.9758 60.1518 32.1171C59.943 32.0806 59.6569 32.1171 59.5525 31.994C59.1801 31.5382 58.8941 31.0505 58.5308 30.6267C58.1675 30.2028 57.8724 29.6559 57.4365 29.5283C56.7919 29.3848 56.1215 29.4083 55.4885 29.5966C55.3477 29.6331 55.3886 30.417 55.3613 30.8546C55.3613 31.0824 55.3613 31.3103 55.3613 31.5382C55.3114 31.7434 55.2461 31.9445 55.1661 32.1398C55.058 31.975 54.9825 31.7909 54.9436 31.5975C54.9436 30.613 54.9436 29.624 54.9436 28.6395ZM57.3093 28.9631C57.6771 28.9985 58.0483 28.9645 58.4037 28.8628C58.6258 28.7954 58.8322 28.6841 59.0108 28.5353C59.1894 28.3866 59.3365 28.2035 59.4435 27.9969C59.5641 27.6774 59.5673 27.3252 59.4525 27.0035C59.3376 26.6819 59.1122 26.4119 58.8169 26.2421C58.0594 25.7982 57.1675 25.6444 56.3058 25.8091C56.102 25.8708 55.9165 25.9821 55.766 26.1332C55.6154 26.2843 55.5045 26.4705 55.4431 26.6751C55.3958 27.4152 55.4324 28.1583 55.5521 28.8902C55.5521 28.9357 55.8109 28.9768 55.9471 28.9813C56.2513 28.954 56.551 28.954 57.3093 28.954V28.9631Z" fill="#1E1E1E"/>
<path d="M127.596 28.9541C127.632 29.337 126.801 29.7107 127.596 30.1118C127.786 30.22 127.935 30.3896 128.017 30.5931C128.099 30.7966 128.111 31.0221 128.05 31.233C127.596 30.7772 127.142 30.3214 126.688 29.8976C126.511 29.7244 126.338 29.4418 126.134 29.4418C124.594 29.2002 124.454 29.3415 124.417 31.0005C124.417 31.2239 124.49 31.4882 124.417 31.6705C124.345 31.8528 124.063 31.9987 123.877 32.1582C123.763 32.0032 123.55 31.8528 123.545 31.7024C123.509 30.9458 123.545 30.1938 123.545 29.4235C123.545 28.2932 123.582 27.1447 123.545 26.028C123.518 25.3899 123.791 25.2669 124.331 25.3079C125.63 25.4036 126.956 25.0891 128.213 25.7637C128.713 26.0235 128.49 26.3744 128.554 26.698C128.084 26.4059 127.593 26.147 127.087 25.9232C125.398 25.276 124.467 25.8594 124.472 27.5412C124.476 29.223 124.181 28.9541 125.807 28.9541H127.596Z" fill="#1E1E1E"/>
<path d="M155.294 28.6486V27.5183C155.294 25.1027 155.294 25.0115 157.737 25.3625C158.645 25.4992 159.74 25.6222 160.394 26.552C160.99 27.2825 161.279 28.2181 161.197 29.1591C161.034 30.5264 159.603 32.0168 158.241 32.149C158.09 32.1606 157.938 32.1606 157.787 32.149L155.367 32.0031C155.335 31.2602 155.303 30.5173 155.285 29.7744C155.294 29.4097 155.294 29.0269 155.294 28.6486ZM155.748 29.1044C155.748 29.7789 155.717 30.4717 155.771 31.128C155.792 31.2497 155.842 31.3644 155.917 31.4621C155.992 31.5598 156.09 31.6376 156.202 31.6886C158.25 32.0077 159.835 31.1554 160.571 29.355C160.698 29.0314 160.843 28.562 160.702 28.3159C160.316 27.6368 159.903 26.8528 159.281 26.4563C158.528 26.0812 157.709 25.8597 156.87 25.8046C156.162 25.6997 155.807 26.2193 155.753 26.8528C155.703 27.5866 155.748 28.3432 155.748 29.0953V29.1044Z" fill="#1E1E1E"/>
<path d="M148.306 28.553C147.943 28.9632 147.738 29.387 147.543 29.3825C146.88 29.3825 146.58 29.5466 146.658 30.2621C146.708 30.768 146.812 31.315 145.922 31.2694C145.177 31.2329 145.245 30.7863 145.318 30.3578C145.473 29.4463 145.05 29.3187 144.301 29.3962C143.983 29.4281 143.484 29.583 143.493 28.9404C143.493 28.5302 143.297 27.9377 144.069 28.0288C144.978 28.1337 145.477 27.9012 145.327 26.8575C145.3 26.6569 145.559 26.4017 145.69 26.2012C145.951 26.3112 146.19 26.4654 146.399 26.6569C146.564 26.8883 146.653 27.1655 146.653 27.45C146.653 27.9741 146.903 28.0379 147.348 28.0607C147.611 28.0881 147.865 28.3205 148.306 28.553Z" fill="#1E1E1E"/>
<path d="M188.015 28.4982C188.317 28.4659 188.621 28.4659 188.923 28.4982C189.017 28.5231 189.104 28.5699 189.177 28.6349C189.249 28.6998 189.305 28.7811 189.341 28.872C189.686 30.5128 189.318 31.3833 187.979 31.8983C184.886 33.0925 182.839 30.6996 182.984 28.2749C183.038 27.4408 183.529 26.821 184.074 26.2194C184.209 26.0385 184.392 25.8997 184.603 25.819C184.813 25.7384 185.042 25.7192 185.263 25.7636C185.05 26.0553 184.846 26.3515 184.623 26.6341C183.147 28.5119 183.824 30.5583 185.436 31.6157C185.89 31.9211 188.206 31.5291 188.306 31.0962C188.43 30.4466 188.441 29.7804 188.337 29.1272C188.337 29.0315 187.674 29.0041 187.32 28.9586C187.17 28.9358 187.016 28.9586 186.866 28.9586C186.807 28.9586 186.703 28.8492 186.712 28.8173C186.748 28.7079 186.816 28.5301 186.884 28.5256C187.257 28.4982 187.638 28.4982 188.015 28.4982Z" fill="#1E1E1E"/>
<path d="M93.6032 32.204L91.3828 32.0399C91.5297 31.3659 91.6388 30.6843 91.7097 29.998C91.7642 28.9406 91.7097 27.8741 91.7097 26.8076C91.7234 25.3081 91.7234 25.3081 93.3126 25.3081C94.2753 25.3081 95.2379 25.4084 96.196 25.4631C95.2879 26.1467 94.2526 25.6363 93.2808 25.7365C92.2001 25.8459 92.1911 25.7776 92.1774 26.835C92.1417 27.2114 92.1493 27.5906 92.2002 27.9653C92.2367 28.0837 92.3012 28.1916 92.3881 28.2797C92.4751 28.3677 92.582 28.4334 92.6996 28.4712C93.6078 28.5213 94.5159 28.4712 95.4241 28.5031C95.5467 28.5031 95.6693 28.6307 95.7919 28.6991C95.692 28.7811 95.5921 28.9315 95.4877 28.9361C94.9609 28.9634 94.4297 28.9361 93.8984 28.9361C92.1457 28.9361 92.1729 28.9361 92.1684 30.7592C92.1684 31.3882 92.2365 31.7437 92.9993 31.6707C93.9075 31.6069 94.8156 31.6434 95.7238 31.6707C95.9054 31.6707 96.078 31.8303 96.2551 31.9123C96.0664 32.0041 95.8663 32.07 95.6602 32.1083C94.9791 32.1083 94.298 32.1083 93.6169 32.1083L93.6032 32.204Z" fill="#1E1E1E"/>
<path d="M164.376 28.79C164.376 27.8056 164.349 26.8165 164.399 25.8321C164.434 25.7129 164.499 25.605 164.589 25.5188C164.678 25.4325 164.788 25.3709 164.907 25.3398C166.115 25.2942 167.328 25.3079 168.54 25.3398C168.663 25.3398 168.781 25.472 168.903 25.5449C168.794 25.6224 168.69 25.7728 168.576 25.7774C167.668 25.7774 166.76 25.8184 165.852 25.7774C165.148 25.7455 164.621 25.7774 164.821 26.7208C164.871 27.0226 164.871 27.3306 164.821 27.6324C164.739 28.2841 164.93 28.5439 165.657 28.5439C166.565 28.5439 167.546 28.2294 168.417 28.7855C167.541 28.9019 166.658 28.9552 165.775 28.945C164.867 28.8721 164.726 29.2276 164.817 29.9796C164.855 30.3584 164.855 30.7402 164.817 31.1191C164.78 31.6478 165.057 31.7116 165.502 31.7161C166.615 31.7161 167.727 31.8118 168.844 31.8665C167.759 32.4773 166.574 32.0807 165.466 32.1491C164.135 32.2312 164.376 32.1491 164.367 31.078C164.376 30.3215 164.376 29.5512 164.376 28.79Z" fill="#1E1E1E"/>
<path d="M132.191 28.6578V25.4673L135.524 25.2941C135.827 25.2711 136.13 25.2711 136.433 25.2941C136.501 25.2941 136.564 25.481 136.591 25.5904C136.591 25.6223 136.492 25.7271 136.437 25.7271C135.452 25.7271 134.466 25.7727 133.486 25.7271C132.836 25.6952 132.577 25.8411 132.577 26.5749C132.577 28.4618 132.537 28.4618 134.471 28.4755C134.925 28.4755 135.379 28.4755 135.833 28.4755C135.96 28.4755 136.083 28.5985 136.206 28.6669C136.11 28.7535 136.015 28.9039 135.91 28.9084C135.456 28.9358 135.002 28.9084 134.548 28.9084C132.505 28.9084 132.518 28.9084 132.591 30.9594C132.591 31.4152 132.664 31.6659 133.186 31.6522C134.171 31.6249 135.157 31.6294 136.137 31.6522C136.315 31.6522 136.487 31.8117 136.66 31.8983C136.537 31.9621 136.414 32.0898 136.292 32.0898C135.079 32.0898 133.867 32.1217 132.659 32.0898C132.541 32.0536 132.434 31.9877 132.348 31.8984C132.262 31.8091 132.201 31.6992 132.169 31.5793C132.119 30.5948 132.146 29.6058 132.146 28.6167L132.191 28.6578Z" fill="#1E1E1E"/>
<path d="M76.7398 28.9042C76.7557 29.1318 76.7557 29.3602 76.7398 29.5878C76.6217 30.4219 77.0304 31.3152 76.4628 32.0992C76.3721 31.2909 76.3221 30.4786 76.3129 29.6653C76.3129 28.9908 76.0132 28.9178 75.4956 28.9589C75.2686 28.9589 75.0415 28.9589 74.8145 28.9589C73.9926 28.9589 72.8892 28.7036 72.4351 29.1275C71.981 29.5514 72.2535 30.668 72.2035 31.4839C72.213 31.6356 72.213 31.7879 72.2035 31.9396C72.2035 32.0034 72.0719 32.1037 72.0537 32.0946C71.9493 32.0353 71.7812 31.9488 71.7812 31.8713C71.7812 29.8203 71.7812 27.7693 71.7812 25.7183C71.7812 25.5952 71.9084 25.4722 71.972 25.3491C72.0661 25.4398 72.1499 25.5406 72.2217 25.6499C72.2535 25.7046 72.2217 25.7958 72.2217 25.8733C72.2974 26.7544 72.3731 27.6341 72.4487 28.5122C73.5839 28.5122 74.7191 28.5122 75.8543 28.4849C76.0132 28.4849 76.2721 28.1294 76.3084 27.9197C76.3629 27.2406 76.3084 26.5524 76.3402 25.8733C76.3849 25.6842 76.4667 25.5061 76.5808 25.3491C76.6622 25.5394 76.7158 25.7405 76.7398 25.9462C76.7398 26.9307 76.7398 27.9197 76.7398 28.9042Z" fill="#1E1E1E"/>
<path d="M51.3109 30.7773C50.0214 29.9614 48.5865 30.44 47.2242 30.3488C47.088 30.3488 46.9064 30.7043 46.7702 30.9186C46.5908 31.2962 46.3923 31.6643 46.1753 32.0215C46.0936 32.1309 45.7894 32.0808 45.585 32.0808C45.5406 31.9871 45.5294 31.881 45.5532 31.78C46.357 30.5904 46.6203 29.0863 47.6738 28.0426C47.7149 28.4122 47.7149 28.7852 47.6738 29.1547C47.6011 29.451 46.7656 29.8247 47.8191 29.8612C48.4866 29.8612 49.1813 29.8612 49.8261 29.8612C50.4709 29.8612 50.589 29.6333 50.2802 29.0453C49.8715 28.2979 49.372 27.596 49.5173 26.6753C50.4028 27.9241 51.3473 29.1319 51.3109 30.7773Z" fill="#1E1E1E"/>
<path d="M99.4432 28.4618C99.4432 29.3095 99.3024 29.7881 99.4795 30.0433C99.6274 30.2018 99.7409 30.3893 99.8128 30.5941C99.8847 30.7989 99.9135 31.0164 99.8973 31.2329C99.2434 31.0415 99.2389 30.3715 98.9301 29.975C98.081 28.9085 98.8529 28.0425 99.03 27.1309C99.1889 26.3288 99.9381 25.9277 100.719 25.5995C102.081 25.0116 103.444 25.2258 104.265 26.2832C104.32 26.3516 104.32 26.5658 104.265 26.584C104.145 26.6626 103.998 26.6904 103.857 26.6615C103.603 26.5475 103.403 26.3197 103.13 26.2057C102.604 26.0188 101.959 25.6406 101.532 25.7955C100.794 26.0855 100.145 26.5667 99.6521 27.1902C99.3569 27.6232 99.4432 28.3479 99.4432 28.4618Z" fill="#1E1E1E"/>
<path d="M179.361 28.7082C179.361 27.7966 179.361 26.8851 179.361 25.9735C179.389 25.7652 179.439 25.5605 179.51 25.3628C179.724 25.5314 180.01 25.659 180.128 25.8778C180.235 26.1451 180.279 26.4338 180.255 26.721C180.255 28.3071 180.255 29.8886 180.255 31.4702C180.255 31.6935 180.051 32.0673 179.887 32.1037C179.338 32.2177 179.356 31.7892 179.361 31.4018C179.361 30.5176 179.361 29.6152 179.361 28.7082Z" fill="#1E1E1E"/>
<path d="M85.8204 29.4099C85.8204 28.6533 85.8431 27.8922 85.8204 27.131C85.7795 25.9597 85.2709 25.5951 84.1085 25.9369C83.8724 26.0098 83.6544 26.4747 83.5818 25.8776C83.6073 25.7589 83.6623 25.6486 83.7417 25.557C83.8211 25.4653 83.9223 25.3953 84.0359 25.3535C85.3209 25.3079 86.6059 25.3216 87.8864 25.3535C88.0959 25.3819 88.3006 25.4386 88.4949 25.5221C88.2739 25.6408 88.039 25.7311 87.7956 25.791C86.4334 25.9734 86.2881 26.1055 86.2745 27.3999C86.2745 28.8402 86.2745 30.2804 86.2745 31.7207C86.2445 31.8567 86.1939 31.9874 86.1246 32.1081C86.0247 31.9714 85.8431 31.8346 85.8385 31.6933C85.8204 30.9094 85.8204 30.1483 85.8204 29.4099Z" fill="#1E1E1E"/>
<path d="M109.886 29.2275C109.886 29.9841 109.886 30.7452 109.886 31.5063C109.854 31.715 109.796 31.9187 109.713 32.1125C109.589 31.8926 109.502 31.654 109.454 31.4061C109.427 30.1937 109.454 28.9768 109.454 27.7599C109.454 26.0279 109.454 26.0279 107.638 25.7681C107.504 25.7312 107.374 25.6792 107.252 25.6132C107.393 25.5129 107.533 25.3306 107.674 25.3306C109.036 25.3306 110.399 25.2987 111.761 25.3306C111.911 25.3306 112.215 25.7864 112.161 25.9094C111.965 26.4518 111.797 25.9094 111.593 25.8547C110.435 25.5767 109.963 25.9504 109.922 27.1674C109.886 27.8647 109.886 28.5438 109.886 29.2275Z" fill="#1E1E1E"/>
<path d="M120.33 27.9835C120.33 28.6581 120.33 29.3508 120.33 30.0117C120.33 30.9643 119.794 31.5294 118.995 31.8941C117.919 32.3863 116.57 32.2632 115.953 31.6206C115.876 31.5022 115.82 31.371 115.789 31.2332C115.939 31.2069 116.093 31.2069 116.243 31.2332C116.438 31.3016 116.602 31.4702 116.797 31.534C118.405 32.049 119.785 31.1147 119.88 29.4374C119.908 28.9817 119.849 28.5259 119.88 28.0701C119.98 27.1586 119.59 26.1923 120.135 25.3354L120.412 27.9562L120.33 27.9835Z" fill="#1E1E1E"/>
<path d="M197.977 28.7765C197.977 29.7656 197.977 30.7501 197.977 31.7345C197.977 31.8621 197.864 31.9898 197.8 32.1128C197.69 32.0386 197.584 31.9579 197.482 31.8713C197.155 31.5522 196.833 31.2332 196.52 30.905C196.12 30.4857 195.521 30.1667 195.716 29.4192C196.111 29.7382 196.506 30.0664 196.906 30.3809C197.06 30.4994 197.228 30.5996 197.387 30.7045C197.455 30.5034 197.503 30.2956 197.528 30.0846C197.528 28.6444 197.528 27.2041 197.528 25.7593C197.557 25.623 197.611 25.4933 197.687 25.3765C197.782 25.5223 197.959 25.6727 197.959 25.8322C197.977 26.8076 197.977 27.7921 197.977 28.7765Z" fill="#1E1E1E"/>
<path d="M192.53 28.5894C192.53 27.9832 192.498 27.377 192.53 26.7663C192.566 26.2831 192.689 25.8091 192.77 25.3306C193.143 25.7863 193.524 26.2421 193.874 26.6979C193.946 26.7936 193.874 26.9941 193.874 27.1537C193.74 27.1195 193.613 27.0641 193.497 26.9896C193.252 26.748 193.02 26.5657 192.975 27.0899C192.929 27.614 192.975 28.1473 192.975 28.676C192.975 29.6559 192.975 30.6358 192.975 31.6157C192.975 31.7935 192.816 31.9667 192.734 32.1399C192.64 31.9516 192.574 31.7504 192.539 31.5428C192.53 30.5492 192.53 29.5693 192.53 28.5894Z" fill="#1E1E1E"/>
<path d="M173.766 32.1443C173.703 32.1443 172.949 32.2765 172.731 31.9985C172.413 31.5883 171.396 31.9392 171.678 31.1598C171.982 30.3075 172.345 31.7569 172.822 31.2783C172.872 31.2282 173.276 31.6247 173.526 31.6749C175.151 31.9711 175.596 31.5928 175.737 29.8518C175.781 29.6878 175.855 29.5333 175.955 29.396C176.068 29.497 176.174 29.6051 176.273 29.7196C176.759 30.2939 176.132 31.962 175.365 32.117C174.833 32.1672 174.299 32.1764 173.766 32.1443Z" fill="#1E1E1E"/>
<path d="M66.2624 25.3081C66.6577 25.3105 67.0481 25.3966 67.408 25.5607C67.7679 25.7249 68.0893 25.9634 68.3511 26.2607C68.4238 26.329 68.4238 26.4703 68.4556 26.5752C68.322 26.6222 68.1855 26.6602 68.0469 26.6891C67.9775 26.7024 67.9057 26.6877 67.8471 26.6481C66.4168 25.2808 65.1544 25.7046 63.9511 26.9854C63.8649 27.0765 63.7014 27.0948 63.5697 27.1494C63.5697 26.9216 63.4744 26.6116 63.5697 26.484C63.9019 26.0978 64.3164 25.7915 64.7825 25.588C65.2486 25.3844 65.7544 25.2888 66.2624 25.3081Z" fill="#1E1E1E"/>
<path d="M174.819 28.9539C174.042 28.9539 173.297 28.9858 172.548 28.5346C172.287 28.3876 172.072 28.1701 171.927 27.9067C171.783 27.6432 171.715 27.3444 171.731 27.0442C171.853 26.5474 171.912 25.4854 173.007 25.7634C173.007 25.8364 173.034 25.923 173.007 25.9822C172.239 27.5683 172.367 27.9876 173.82 28.4935C174.16 28.6257 174.75 28.2155 174.819 28.9539Z" fill="#1E1E1E"/>
<path d="M80.8889 28.617C80.6255 29.8339 81.1659 31.0098 80.5256 32.0809C80.4757 30.9688 80.3485 29.8522 80.3939 28.7446C80.4393 27.6371 80.0398 26.4658 80.6709 25.3901C80.7481 26.4977 80.8253 27.6098 80.8889 28.617Z" fill="#1E1E1E"/>
<path d="M114.882 27.7192C115.036 27.0492 114.601 26.1513 115.155 25.3628C115.218 26.1741 115.282 26.9808 115.336 27.7921C115.404 28.8039 115.086 29.8704 115.79 30.7956C115.863 30.8914 115.79 31.0919 115.79 31.2514C115.663 31.1967 115.481 31.1785 115.413 31.0828C115.175 30.8233 115.001 30.511 114.905 30.1712C114.832 29.4101 114.882 28.6444 114.882 27.7192Z" fill="#1E1E1E"/>
<path d="M64.0245 31.2328C62.7531 30.9001 63.1436 29.6103 62.7213 28.8036C62.4125 28.2156 62.9438 27.5228 63.5704 27.1309C63.531 27.89 63.531 28.6506 63.5704 29.4097C63.6806 30.027 63.8323 30.6361 64.0245 31.2328Z" fill="#1E1E1E"/>
<path d="M47.6776 28.0426C47.4732 27.286 47.9954 26.6753 48.1634 26.0326C48.227 25.7683 48.6175 25.5768 48.89 25.3809C49.0897 25.6634 49.3122 25.9369 49.4848 26.2377C49.5484 26.3517 49.4848 26.5294 49.4848 26.6935C49.2396 27.1493 48.7628 25.3809 48.5403 26.8029C48.4813 27.2495 47.9818 27.6324 47.6776 28.0426Z" fill="#1E1E1E"/>
<path d="M173.799 25.3077C174.335 25.3077 174.775 25.1801 174.912 25.3077C175.284 25.7133 176.156 25.4581 176.169 26.2192C176.169 26.7069 175.956 26.593 175.665 26.356C175.431 26.2054 175.173 26.096 174.903 26.0324C174.576 25.9139 174.24 25.8136 173.908 25.7179C173.577 25.6222 173.304 25.5675 173 25.49L173.799 25.3077Z" fill="#1E1E1E"/>
<path d="M186.843 25.2715C187.247 25.3854 187.928 25.5723 188.6 25.782C188.7 25.8139 188.773 25.9506 188.841 26.0509C188.841 26.0509 188.741 26.2013 188.691 26.2013C187.533 26.2013 186.461 25.472 185.263 25.7728C185.251 25.6988 185.251 25.6235 185.263 25.5495C185.276 25.5131 185.297 25.48 185.325 25.4525C185.352 25.425 185.385 25.4037 185.421 25.39C185.789 25.349 186.171 25.3079 186.843 25.2715Z" fill="#1E1E1E"/>
<path d="M67.6566 31.6887C67.1073 32.0497 66.456 32.2219 65.8008 32.1791C65.1456 32.1364 64.522 31.8811 64.024 31.4517C63.9876 31.4152 64.024 31.3058 64.024 31.2329C64.6277 31.4203 65.2417 31.5725 65.863 31.6887C66.4602 31.7275 67.0593 31.7275 67.6566 31.6887Z" fill="#1E1E1E"/>
<path d="M103.529 31.6887C102.98 32.0497 102.329 32.2219 101.674 32.1791C101.018 32.1364 100.395 31.8811 99.8968 31.4517C99.8604 31.4152 99.8968 31.3058 99.8968 31.2329C100.5 31.4203 101.115 31.5725 101.736 31.6887C102.333 31.7275 102.932 31.7275 103.529 31.6887Z" fill="#1E1E1E"/>
<path d="M193.891 27.1309C194.703 27.7234 195.707 28.1655 195.707 29.4097C194.894 28.8263 193.891 28.3842 193.891 27.1309Z" fill="#1E1E1E"/>
<path d="M128.504 26.6753C129.385 27.9834 129.149 28.5759 127.596 28.9542C127.927 28.2158 128.872 27.7099 128.504 26.6753Z" fill="#1E1E1E"/>
<path d="M52.1596 31.9851C52.0461 32.0398 51.9099 32.1628 51.81 32.1401C51.6329 32.0945 51.3559 31.9851 51.3559 31.862C51.3038 31.503 51.2886 31.1395 51.3105 30.7773C51.3105 30.7773 51.4921 30.7499 51.5103 30.7773C51.7646 31.1829 51.9462 31.584 52.1596 31.9851Z" fill="#1E1E1E"/>
<path d="M129.158 31.8621C128.966 31.9808 128.76 32.0757 128.545 32.1447C128.018 32.1903 128.023 31.8166 128.059 31.4565C128.059 31.379 128.236 31.2423 128.254 31.2514C128.54 31.4246 128.808 31.616 129.158 31.8621Z" fill="#1E1E1E"/>
<path d="M68.275 30.5859C68.3938 30.7792 68.4898 30.9857 68.5611 31.2012C68.602 31.7299 68.2296 31.7254 67.8709 31.6889C67.7937 31.6889 67.6575 31.5112 67.6711 31.4929C67.8391 31.2331 68.0344 30.9369 68.275 30.5859Z" fill="#1E1E1E"/>
<path d="M104.148 30.5859C104.267 30.7792 104.363 30.9857 104.434 31.2012C104.475 31.7299 104.102 31.7254 103.744 31.6889C103.667 31.6889 103.53 31.5112 103.544 31.4929C103.712 31.2331 103.907 30.9369 104.148 30.5859Z" fill="#1E1E1E"/>
<path d="M175.728 29.4099C175.383 29.3416 174.861 29.6333 174.82 28.9542C175.165 29.0316 175.692 28.7354 175.728 29.4099Z" fill="#1E1E1E"/>
</g>
<defs>
<clipPath id="clip0_5_417">
<rect width="198" height="32" fill="white" transform="translate(0 0.240234)"/>
</clipPath>
</defs>
</svg>
