<svg width="30" height="30" viewBox="0 0 30 30" fill="none" xmlns="http://www.w3.org/2000/svg">
<path fill-rule="evenodd" clip-rule="evenodd" d="M7.48818 6.59672C6.88948 7.12993 6.35192 7.58822 5.87406 7.99318C5.80661 8.05034 5.74057 8.10626 5.67586 8.16105C5.27109 8.50375 4.91861 8.80219 4.60198 9.0832C3.86866 9.73406 3.40544 10.2255 3.07785 10.7751C2.42117 11.8769 2.17686 13.4218 2.17686 17.3902C2.17686 20.2592 2.35545 22.3188 2.75903 23.812C3.15521 25.2779 3.74581 26.118 4.52818 26.6579C5.34528 27.2218 6.51177 27.5577 8.26835 27.7318C10.0232 27.9057 12.2122 27.907 15 27.907C17.7878 27.907 19.9768 27.9057 21.7316 27.7318C23.4882 27.5577 24.6547 27.2218 25.4718 26.6579C26.2542 26.118 26.8448 25.2779 27.241 23.812C27.6445 22.3188 27.8231 20.2592 27.8231 17.3902C27.8231 13.4217 27.5792 11.8767 26.9228 10.7749C26.5954 10.2254 26.1323 9.73396 25.3992 9.08314C25.0823 8.80187 24.7295 8.50313 24.3243 8.16002C24.26 8.10555 24.1943 8.04996 24.1273 7.99315C23.6495 7.58819 23.1119 7.12989 22.5132 6.59668C22.1588 6.3215 21.7916 6.02376 21.4111 5.71518C20.5823 5.04298 19.69 4.31935 18.7273 3.66551C17.298 2.69466 16.0035 2.09302 14.9594 2.09302C13.9186 2.09302 12.6418 2.69472 11.2313 3.66702C10.3108 4.30156 9.46877 4.99116 8.67757 5.63912C8.2688 5.97388 7.87361 6.29753 7.48818 6.59672ZM9.96293 1.966C11.4146 0.965282 13.1803 0 14.9594 0C16.7335 0 18.5135 0.957663 19.9833 1.95601C21.0224 2.66176 22.0503 3.49464 22.9107 4.19185C23.2778 4.48925 23.6143 4.76196 23.9083 4.98959C23.928 5.00486 23.9472 5.02077 23.9657 5.03732C24.555 5.56273 25.0852 6.01494 25.5667 6.42303C25.632 6.47838 25.6967 6.5331 25.7606 6.5872C26.1638 6.92865 26.5386 7.24591 26.8758 7.54532C27.6585 8.24005 28.3171 8.90452 28.8117 9.7346C29.7992 11.3921 30 13.5016 30 17.3902C30 20.3029 29.8232 22.5795 29.3479 24.3384C28.8651 26.1247 28.0531 27.4528 26.7412 28.3582C25.464 29.2397 23.8444 29.6265 21.9548 29.8138C20.076 30 17.7768 30 15.0539 30H14.9461C12.2232 30 9.92401 30 8.04515 29.8138C6.15564 29.6265 4.53602 29.2397 3.2588 28.3582C1.94685 27.4528 1.13492 26.1247 0.652148 24.3384C0.176778 22.5795 0 20.3029 0 17.3902C0 13.5014 0.201218 11.392 1.18915 9.73443C1.68388 8.90439 2.34273 8.23995 3.12545 7.54525C3.46241 7.24619 3.83672 6.9293 4.23952 6.5883C4.30386 6.53382 4.36893 6.47874 4.43469 6.42301C4.91623 6.01492 5.44649 5.56272 6.03572 5.03732C6.05433 5.02072 6.07355 5.00475 6.09332 4.98945C6.40116 4.75119 6.76043 4.45749 7.1545 4.13535C7.98749 3.45441 8.97597 2.64635 9.96293 1.966Z" fill="#B58569"/>
</svg>
