<svg width="44" height="44" viewBox="0 0 44 44" fill="none" xmlns="http://www.w3.org/2000/svg">
<path d="M21.9863 44.0001C21.8414 44.0001 21.6948 43.9653 21.5628 43.8956L0.495037 32.8954C0.19255 32.7377 0.00189209 32.4242 0.00189209 32.0832V11.4578C0.00189209 11.1406 0.166885 10.8454 0.436373 10.6786C0.705861 10.5117 1.04501 10.4971 1.32733 10.6382L22.3951 21.1801C22.7049 21.336 22.9011 21.6531 22.9011 21.9997V43.0834C22.9011 43.4043 22.7342 43.7013 22.4592 43.8681C22.3163 43.9561 22.1513 44.0001 21.9863 44.0001ZM1.83515 31.5277L21.0696 41.5709V22.5662L1.83515 12.941V31.5277Z" fill="#B58569"/>
<path d="M22.0153 44C21.8503 44 21.6853 43.956 21.5404 43.868C21.2673 43.7012 21.0986 43.4042 21.0986 43.0833V21.9996C21.0986 21.653 21.2948 21.3359 21.6046 21.18L42.6724 10.6381C42.9528 10.4951 43.2938 10.5098 43.5633 10.6785C43.8346 10.8453 43.9996 11.1405 43.9996 11.4577V32.0831C43.9996 32.4241 43.809 32.7376 43.5065 32.8953L22.4387 43.8955C22.3067 43.9652 22.1601 44 22.0153 44ZM22.9319 22.5661V41.5708L42.1664 31.5276V12.9409L22.9319 22.5661ZM43.083 32.0831H43.1013H43.083Z" fill="#B58569"/>
<path d="M0.918532 12.3743C0.581213 12.3743 0.258561 12.1892 0.0972345 11.8683C-0.130089 11.4155 0.0550696 10.8655 0.507883 10.6381L21.605 0.096252C21.8635 -0.032084 22.1678 -0.032084 22.4244 0.096252L43.4922 10.6381C43.945 10.8655 44.1283 11.4155 43.9028 11.8683C43.6755 12.3212 43.1274 12.5027 42.6727 12.279L22.0156 1.94062L1.32918 12.2772C1.19719 12.3432 1.05786 12.3743 0.918532 12.3743Z" fill="#B58569"/>
<path d="M33.0005 27.4996C32.4945 27.4996 32.0839 27.089 32.0839 26.5829V17.0659L11.5221 6.77703C11.0693 6.55152 10.886 5.99968 11.1133 5.54684C11.3406 5.09399 11.8906 4.91249 12.3434 5.13616L33.4111 15.678C33.721 15.8357 33.9171 16.1529 33.9171 16.4994V26.5829C33.9171 27.089 33.5065 27.4996 33.0005 27.4996Z" fill="#B58569"/>
</svg>
