<svg width="43" height="43" viewBox="0 0 43 43" fill="none" xmlns="http://www.w3.org/2000/svg">
<path d="M37.0403 17.7747H36.9338V15.1671C36.9338 6.79054 30.1434 0 21.7667 0C13.3901 0 6.59966 6.79054 6.59966 15.1671V17.7747H5.96108C3.61948 17.7747 1.8101 19.8502 1.8101 22.2451V28.8973C1.75112 31.2184 3.58505 33.1479 5.90618 33.2069C5.92452 33.2074 5.94275 33.2077 5.96108 33.2079H9.89918C10.457 33.1817 10.888 32.7081 10.8617 32.1504C10.8608 32.1303 10.8592 32.1102 10.8571 32.0903V19.0519C10.8571 18.4133 10.4846 17.7746 9.89918 17.7746H8.72838V15.167C8.72838 7.96613 14.5659 2.12861 21.7667 2.12861C28.9676 2.12861 34.8051 7.96613 34.8051 15.167V17.7746H33.6343C33.0489 17.7746 32.6764 18.4132 32.6764 19.0519V32.0903C32.617 32.6455 33.0189 33.1438 33.5742 33.2032C33.5942 33.2053 33.6142 33.2069 33.6343 33.2078H34.8583L34.7518 33.3674C33.1549 35.4897 30.6491 36.7327 27.9932 36.7201C27.4117 33.8691 24.6291 32.0291 21.778 32.6107C19.34 33.1079 17.5821 35.2431 17.5625 37.7313C17.5916 40.6496 19.9658 43 22.8843 42.9998C24.329 42.9764 25.706 42.3835 26.7159 41.35C27.3973 40.6523 27.8437 39.7593 27.9932 38.7955C31.3192 38.8082 34.4558 37.2497 36.4548 34.5914L37.4659 33.1012C39.7543 32.9416 41.1911 31.5047 41.1911 29.4292V22.777C41.1912 20.4889 39.4883 17.7747 37.0403 17.7747ZM8.72838 31.0792H5.96108C4.81514 31.0513 3.90877 30.0998 3.93668 28.9538C3.93719 28.935 3.9379 28.9161 3.93881 28.8972V22.245C3.93881 21.021 4.79028 19.9034 5.96108 19.9034H8.72838V31.0792ZM25.1727 39.8601C24.5829 40.4996 23.7543 40.8658 22.8844 40.8713C21.1529 40.8438 19.7478 39.4621 19.6913 37.7314C19.6906 35.9973 21.0958 34.591 22.8299 34.5903C24.564 34.5895 25.9703 35.9947 25.971 37.7288C25.971 37.7296 25.971 37.7306 25.971 37.7314C26.0153 38.5215 25.7256 39.2939 25.1727 39.8601ZM39.0625 29.4294C39.0625 30.8663 37.6788 31.0792 37.0403 31.0792H34.8051V19.9035H37.0403C38.2111 19.9035 39.0625 21.5532 39.0625 22.7772V29.4294Z" fill="#B58569"/>
</svg>
