<svg width="30" height="31" viewBox="0 0 30 31" fill="none" xmlns="http://www.w3.org/2000/svg">
<g clip-path="url(#clip0_5_485)">
<path d="M15 0.240234C6.717 0.240234 0 6.95723 0 15.2402C0 23.5232 6.717 30.2402 15 30.2402C23.283 30.2402 30 23.5232 30 15.2402C30 6.95723 23.283 0.240234 15 0.240234ZM21.8488 11.9356C21.8555 12.0833 21.8587 12.2316 21.8587 12.3806C21.8587 16.9301 18.3957 22.1763 12.0628 22.1765H12.063H12.0628C10.1184 22.1765 8.3091 21.6066 6.78543 20.6299C7.05482 20.6618 7.32903 20.6776 7.60666 20.6776C9.21982 20.6776 10.7043 20.1273 11.8829 19.2038C10.3757 19.1759 9.10492 18.1805 8.66638 16.8124C8.87627 16.8527 9.0921 16.8747 9.31343 16.8747C9.62769 16.8747 9.9321 16.8323 10.2214 16.7534C8.64601 16.438 7.45926 15.0457 7.45926 13.3785C7.45926 13.3629 7.45926 13.349 7.45972 13.3346C7.92366 13.5925 8.45421 13.7477 9.01909 13.7651C8.09464 13.1483 7.48695 12.0938 7.48695 10.8993C7.48695 10.2685 7.65747 9.67749 7.95319 9.16869C9.65103 11.252 12.1884 12.6221 15.0499 12.766C14.9908 12.5138 14.9604 12.251 14.9604 11.981C14.9604 10.0803 16.5024 8.53835 18.4037 8.53835C19.3941 8.53835 20.2885 8.95697 20.9168 9.62622C21.7012 9.4715 22.4377 9.18494 23.1031 8.79057C22.8456 9.59418 22.3 10.2685 21.5891 10.6949C22.2855 10.6116 22.9493 10.4268 23.5661 10.1526C23.1054 10.8432 22.5211 11.4497 21.8488 11.9356Z" fill="white"/>
</g>
<defs>
<clipPath id="clip0_5_485">
<rect width="30" height="30" fill="white" transform="translate(0 0.240234)"/>
</clipPath>
</defs>
</svg>
