<svg width="116" height="41" viewBox="0 0 116 41" fill="none" xmlns="http://www.w3.org/2000/svg">
<g clip-path="url(#clip0_5_467)">
<path d="M25.3809 36.0809C22.007 39.1523 18.3187 40.3946 14.0826 40.2315C6.0565 39.8876 0.158909 33.798 0.0511358 25.4405C-0.0536438 17.4773 0.0421547 9.52589 0.000242846 1.57155C0.000242846 0.691024 0.194833 0.31154 1.15881 0.403446C2.72451 0.554647 4.79017 -0.236933 5.73318 0.729566C6.49658 1.50336 5.97268 3.54012 5.97567 5.01655C5.97567 11.4381 5.97567 17.8617 5.97567 24.2872C5.94905 25.7209 6.16043 27.1491 6.60136 28.5149C8.14311 33.0539 12.3852 35.5502 17.3098 34.8268C21.8004 34.1686 25.2431 30.2048 25.306 25.2863C25.4018 17.5781 25.3809 9.8698 25.306 2.16153C25.306 0.765142 25.5754 0.195916 27.0663 0.382693C28.1091 0.493766 29.1609 0.493766 30.2037 0.382693C31.1827 0.296716 31.3383 0.679165 31.3353 1.56858C31.3074 13.8662 31.3074 26.1649 31.3353 38.4645C31.3353 39.3984 31.0719 39.6504 30.1588 39.603C28.9629 39.5182 27.7623 39.5182 26.5664 39.603C25.5335 39.6801 25.2551 39.2798 25.3509 38.343C25.4467 37.7204 25.3809 37.0741 25.3809 36.0809Z" fill="#1E1E1E"/>
<path d="M41.6132 36.321C41.5084 36.5166 41.4366 36.5937 41.4306 36.6738C41.233 39.591 41.233 39.591 38.3141 39.591C35.7156 39.591 35.7156 39.591 35.7156 36.9436C35.7156 25.2833 35.7426 13.6231 35.6797 1.95986C35.6797 0.607948 36.0599 0.255147 37.3322 0.391524C38.3278 0.486767 39.3303 0.486767 40.3259 0.391524C41.2839 0.311476 41.4845 0.687996 41.4725 1.57741C41.4246 5.33371 41.4545 9.08705 41.4545 12.8433V14.3494C49.8728 8.75796 57.9019 9.3094 63.3265 15.7725C68.2572 21.6397 67.868 30.4953 62.4284 35.8852C59.684 38.5999 55.9873 40.1605 52.1092 40.2417C48.2311 40.3229 44.471 38.9184 41.6132 36.321ZM51.1931 35.1944C53.1619 35.2002 55.0881 34.6267 56.7273 33.5465C58.3664 32.4663 59.6445 30.9283 60.3995 29.1275C61.1544 27.3267 61.3521 25.3444 60.9675 23.4322C60.5829 21.52 59.6332 19.764 58.2391 18.3872C56.845 17.0103 55.0693 16.0747 53.1374 15.699C51.2054 15.3233 49.2043 15.5245 47.388 16.277C45.5717 17.0295 44.022 18.2995 42.9358 19.9257C41.8495 21.5519 41.2756 23.461 41.2869 25.4108C41.2948 28.0078 42.3419 30.4957 44.1987 32.3296C46.0555 34.1634 48.5707 35.1936 51.1931 35.1944Z" fill="#1E1E1E"/>
<path d="M86.5398 27.1509C83.1 27.1509 79.6543 27.2191 76.2205 27.1183C74.8015 27.0797 74.8075 27.5541 75.1757 28.6392C75.7072 30.228 76.6468 31.6526 77.9022 32.7731C79.1577 33.8936 80.6859 34.6715 82.3367 35.0303C83.9875 35.3892 85.7041 35.3166 87.3181 34.8199C88.932 34.3231 90.3877 33.4192 91.5423 32.1968C92.4703 31.2333 93.09 31.0643 93.9881 32.0249C94.1743 32.1892 94.3746 32.337 94.5869 32.4666C97.0327 34.2455 97.0327 34.2455 94.6856 36.3593C90.1083 40.4506 83.0611 41.3993 77.3491 38.6777C71.8467 36.0628 68.7242 30.673 69.0326 24.2959C69.311 18.5147 73.2238 13.2108 78.825 11.3222C88.6144 8.01954 98.775 14.4708 98.2511 26.383C98.2122 27.2458 97.7153 27.1538 97.1614 27.1538L86.5398 27.1509ZM83.7017 22.6564C86.2434 22.6564 88.791 22.6326 91.3267 22.6564C92.1769 22.6564 92.4553 22.5556 92.15 21.6098C91.5822 19.8313 90.4654 18.2739 88.9568 17.157C87.4482 16.0401 85.6239 15.42 83.7407 15.3839C79.9117 15.3572 76.3762 17.984 75.1966 21.6365C74.9302 22.4666 75.0799 22.6593 75.9271 22.6475C78.5167 22.6326 81.1092 22.6564 83.7017 22.6564Z" fill="#1E1E1E"/>
<path d="M107.212 14.1741C109.167 11.5058 111.742 10.6905 114.775 10.7676C115.742 10.7943 116.017 11.1056 115.885 11.9535C115.879 12.0522 115.879 12.1512 115.885 12.25C115.867 13.4359 116.25 14.853 115.721 15.7365C115.164 16.6733 113.625 15.9737 112.511 16.1367C109.353 16.6022 107.159 19.2882 107.102 23.1246C107.028 28.1132 107.028 33.1018 107.102 38.0905C107.12 39.3534 106.76 39.7151 105.533 39.5966C104.204 39.4691 102.405 40.0205 101.641 39.3475C100.743 38.5678 101.369 36.7534 101.363 35.3896C101.336 27.7347 101.378 20.0798 101.318 12.4249C101.318 11.239 101.665 10.8417 102.8 11.0137C103.099 11.033 103.399 11.033 103.698 11.0137C104.743 11.0315 106 10.7172 106.775 11.1679C107.551 11.6185 106.823 13.0149 107.212 14.1741Z" fill="#1E1E1E"/>
</g>
<defs>
<clipPath id="clip0_5_467">
<rect width="116" height="40" fill="white" transform="translate(0 0.240234)"/>
</clipPath>
</defs>
</svg>
