<svg width="24" height="23" viewBox="0 0 24 23" fill="none" xmlns="http://www.w3.org/2000/svg">
<path d="M18.5 0.240234H5.5C4.0418 0.241823 2.64377 0.821795 1.61267 1.8529C0.581561 2.88401 0.00158817 4.28203 0 5.74023L0 16.7402C0.00158817 18.1984 0.581561 19.5965 1.61267 20.6276C2.64377 21.6587 4.0418 22.2386 5.5 22.2402H18.5C19.9582 22.2386 21.3562 21.6587 22.3873 20.6276C23.4184 19.5965 23.9984 18.1984 24 16.7402V5.74023C23.9984 4.28203 23.4184 2.88401 22.3873 1.8529C21.3562 0.821795 19.9582 0.241823 18.5 0.240234ZM18.5 3.24023C19.1065 3.24225 19.6911 3.46678 20.143 3.87123L13.643 10.3712C13.2015 10.7929 12.6145 11.0282 12.004 11.0282C11.3935 11.0282 10.8065 10.7929 10.365 10.3712L3.865 3.87123C4.31485 3.46861 4.8963 3.24421 5.5 3.24023H18.5ZM18.5 19.2402H5.5C4.83696 19.2402 4.20107 18.9768 3.73223 18.508C3.26339 18.0392 3 17.4033 3 16.7402V7.25723L8.239 12.4962C8.73276 12.9902 9.319 13.3821 9.96424 13.6494C10.6095 13.9168 11.3011 14.0544 11.9995 14.0544C12.6979 14.0544 13.3895 13.9168 14.0348 13.6494C14.68 13.3821 15.2662 12.9902 15.76 12.4962L21 7.25723V16.7402C21 17.4033 20.7366 18.0392 20.2678 18.508C19.7989 18.9768 19.163 19.2402 18.5 19.2402Z" fill="#8C8C8C"/>
</svg>
